<svg width="21" height="22" viewBox="0 0 21 22" fill="none" xmlns="http://www.w3.org/2000/svg">
<path d="M10.5 0.953125C4.88086 0.953125 0.328125 5.50586 0.328125 11.125C0.328125 16.7441 4.88086 21.2969 10.5 21.2969C16.1191 21.2969 20.6719 16.7441 20.6719 11.125C20.6719 5.50586 16.1191 0.953125 10.5 0.953125ZM15.4629 13.832C15.668 13.9961 15.668 14.3242 15.4629 14.5293L13.8633 16.1289C13.6582 16.334 13.3301 16.334 13.166 16.1289L10.5 13.4219L7.79297 16.1289C7.62891 16.334 7.30078 16.334 7.0957 16.1289L5.49609 14.4883C5.29102 14.3242 5.29102 13.9961 5.49609 13.791L8.20312 11.125L5.49609 8.45898C5.29102 8.29492 5.29102 7.9668 5.49609 7.76172L7.13672 6.16211C7.30078 5.95703 7.62891 5.95703 7.83398 6.16211L10.5 8.82812L13.166 6.16211C13.3301 5.95703 13.6582 5.95703 13.8633 6.16211L15.4629 7.76172C15.668 7.9668 15.668 8.29492 15.4629 8.45898L12.7969 11.125L15.4629 13.832Z" fill="#DE6667"/>
</svg>
