<svg width="21" height="22" viewBox="0 0 21 22" fill="none" xmlns="http://www.w3.org/2000/svg">
<path d="M20.6719 11.125C20.6719 5.50586 16.1191 0.953125 10.5 0.953125C4.88086 0.953125 0.328125 5.50586 0.328125 11.125C0.328125 16.7441 4.88086 21.2969 10.5 21.2969C16.1191 21.2969 20.6719 16.7441 20.6719 11.125ZM11.1973 15.8008C10.7871 16.2109 10.1719 16.2109 9.80273 15.8008L4.22461 10.2637C3.85547 9.89453 3.85547 9.23828 4.22461 8.86914L4.92188 8.17188C5.29102 7.80273 5.94727 7.80273 6.31641 8.17188L10.5 12.3555L14.6426 8.17188C15.0117 7.80273 15.668 7.80273 16.0371 8.17188L16.7344 8.86914C17.1035 9.23828 17.1035 9.85352 16.7344 10.2637L11.1973 15.8008Z" fill="#4D4946"/>
</svg>
