<svg width="84" height="12" viewBox="0 0 84 12" fill="none" xmlns="http://www.w3.org/2000/svg">
<path d="M9.20106 11H10.6731L6.36906 0.327999H4.72106L0.433063 11H1.90506L2.84906 8.632H8.25706L9.20106 11ZM5.55306 1.512L7.85706 7.448H3.23306L5.55306 1.512ZM12.0203 11H13.2203V9.848C13.7963 10.632 14.7403 11.192 15.8283 11.192C17.8443 11.192 19.2683 9.656 19.2683 7.144C19.2683 4.68 17.8443 3.08 15.8283 3.08C14.7723 3.08 13.8443 3.592 13.2203 4.44V0.327999H12.0203V11ZM13.2203 8.904V5.4C13.6363 4.728 14.5803 4.152 15.5243 4.152C17.0923 4.152 18.0203 5.432 18.0203 7.144C18.0203 8.856 17.0923 10.12 15.5243 10.12C14.5803 10.12 13.6363 9.576 13.2203 8.904ZM24.5994 11.192C26.9514 11.192 28.4234 9.368 28.4234 7.128C28.4234 4.888 26.9514 3.08 24.5994 3.08C22.2474 3.08 20.7754 4.888 20.7754 7.128C20.7754 9.368 22.2474 11.192 24.5994 11.192ZM24.5994 10.12C22.9514 10.12 22.0234 8.712 22.0234 7.128C22.0234 5.56 22.9514 4.152 24.5994 4.152C26.2474 4.152 27.1594 5.56 27.1594 7.128C27.1594 8.712 26.2474 10.12 24.5994 10.12ZM35.5957 11H36.7957V3.272H35.5957V8.952C35.1477 9.576 34.2517 10.12 33.3077 10.12C32.2677 10.12 31.5797 9.72 31.5797 8.36V3.272H30.3797V8.728C30.3797 10.408 31.2277 11.192 32.8437 11.192C33.9957 11.192 35.0037 10.584 35.5957 9.912V11ZM41.1442 11.192C41.8482 11.192 42.2802 10.984 42.5842 10.696L42.2322 9.8C42.0722 9.976 41.7522 10.12 41.4162 10.12C40.8882 10.12 40.6322 9.704 40.6322 9.128V4.328H42.2002V3.272H40.6322V1.16H39.4322V3.272H38.1522V4.328H39.4322V9.384C39.4322 10.536 40.0082 11.192 41.1442 11.192ZM48.0683 6.856C48.0683 9.48 49.5243 11.192 52.4203 11.192C55.3163 11.192 56.7723 9.496 56.7723 6.84V0.327999H55.4443V6.824C55.4443 8.776 54.3883 10.008 52.4203 10.008C50.4523 10.008 49.3963 8.776 49.3963 6.824V0.327999H48.0683V6.856ZM58.5514 9.976C59.3354 10.808 60.4074 11.192 61.6714 11.192C63.6714 11.192 64.7114 10.152 64.7114 8.856C64.7114 7.144 63.1594 6.76 61.8154 6.456C60.8074 6.216 59.9274 5.976 59.9274 5.224C59.9274 4.536 60.5834 4.056 61.6394 4.056C62.6314 4.056 63.4794 4.472 63.9434 5.032L64.5034 4.2C63.8794 3.576 62.9514 3.08 61.6394 3.08C59.7994 3.08 58.7594 4.104 58.7594 5.304C58.7594 6.904 60.2474 7.256 61.5594 7.56C62.5994 7.816 63.5434 8.088 63.5434 8.936C63.5434 9.688 62.9034 10.216 61.7194 10.216C60.6634 10.216 59.6874 9.704 59.1754 9.112L58.5514 9.976ZM74.6797 3C74.1172 3 73.8359 3.6875 74.2422 4.09375L78.2422 8.09375C78.4922 8.34375 78.8984 8.34375 79.1484 8.09375L83.1484 4.09375C83.5547 3.6875 83.2734 3 82.7109 3H74.6797Z" fill="white"/>
</svg>
