<svg width="15" height="16" viewBox="0 0 15 16" fill="none" xmlns="http://www.w3.org/2000/svg">
<path d="M13.1316 0H2.13159C1.31909 0 0.631592 0.71875 0.631592 1.5V14.5C0.631592 15.3125 1.31909 16 2.13159 16H13.1316C13.9128 16 14.6316 15.3125 14.6316 14.5V1.5C14.6316 0.71875 13.9128 0 13.1316 0ZM13.1316 14.5H2.13159V6.5H13.1316V14.5ZM13.1316 5H2.13159V1.5H13.1316V5ZM4.00659 10H5.22534C5.41284 10 5.63159 9.8125 5.63159 9.625V8.40625C5.63159 8.21875 5.41284 8 5.22534 8H4.00659C3.81909 8 3.63159 8.21875 3.63159 8.40625V9.625C3.63159 9.8125 3.81909 10 4.00659 10ZM10.0066 13H11.2253C11.4128 13 11.6316 12.8125 11.6316 12.625V8.40625C11.6316 8.21875 11.4128 8 11.2253 8H10.0066C9.81909 8 9.63159 8.21875 9.63159 8.40625V12.625C9.63159 12.8125 9.81909 13 10.0066 13ZM4.00659 13H5.22534C5.41284 13 5.63159 12.8125 5.63159 12.625V11.4062C5.63159 11.2188 5.41284 11 5.22534 11H4.00659C3.81909 11 3.63159 11.2188 3.63159 11.4062V12.625C3.63159 12.8125 3.81909 13 4.00659 13ZM7.00659 10H8.22534C8.41284 10 8.63159 9.8125 8.63159 9.625V8.40625C8.63159 8.21875 8.41284 8 8.22534 8H7.00659C6.81909 8 6.63159 8.21875 6.63159 8.40625V9.625C6.63159 9.8125 6.81909 10 7.00659 10ZM7.00659 13H8.22534C8.41284 13 8.63159 12.8125 8.63159 12.625V11.4062C8.63159 11.2188 8.41284 11 8.22534 11H7.00659C6.81909 11 6.63159 11.2188 6.63159 11.4062V12.625C6.63159 12.8125 6.81909 13 7.00659 13Z" fill="white"/>
</svg>
