<svg xmlns="http://www.w3.org/2000/svg" xmlns:xlink="http://www.w3.org/1999/xlink" width="18" height="14" viewBox="0 0 18 14">
  <defs>
    <clipPath id="clip-path">
      <rect id="Rectangle_4" data-name="Rectangle 4" width="18" height="14" transform="translate(346 409)" fill="#fff"/>
    </clipPath>
  </defs>
  <g id="Mask_Group_3" data-name="Mask Group 3" transform="translate(-346 -409)" clip-path="url(#clip-path)">
    <path id="fund" d="M11.136,4.625A1.652,1.652,0,0,0,9.96,3.313L8.593,2.93a.229.229,0,0,1-.164-.219.241.241,0,0,1,.219-.246h.9a.462.462,0,0,1,.273.082.374.374,0,0,0,.383-.055L10.7,2a.31.31,0,0,0-.055-.492A1.9,1.9,0,0,0,9.8,1.18V.688A.47.47,0,0,0,9.358.25H8.921a.45.45,0,0,0-.437.438V1.18A1.545,1.545,0,0,0,7.116,2.9,1.652,1.652,0,0,0,8.292,4.215L9.659,4.6a.208.208,0,0,1,.164.219.223.223,0,0,1-.219.246H8.7a.528.528,0,0,1-.273-.082.374.374,0,0,0-.383.055l-.492.492a.327.327,0,0,0,.055.492,1.885,1.885,0,0,0,.875.328v.465a.432.432,0,0,0,.438.438h.438A.45.45,0,0,0,9.8,6.813V6.348A1.544,1.544,0,0,0,11.136,4.625ZM5.968,6.566a.868.868,0,0,0-1.2-.191.88.88,0,0,0-.191,1.23L5.612,9a.454.454,0,0,1-.027.574L5.23,9.93A.47.47,0,0,1,4.573,9.9L2.14,6.949V2.875A.9.9,0,0,0,1.265,2a.881.881,0,0,0-.875.875V8.863a1.29,1.29,0,0,0,.273.82l2.844,3.664a1.777,1.777,0,0,1,.3.6.39.39,0,0,0,.41.3H7.827a.45.45,0,0,0,.438-.437V10.75a3.412,3.412,0,0,0-.711-2.078ZM17.015,2a.881.881,0,0,0-.875.875V6.949L13.679,9.9a.47.47,0,0,1-.656.027l-.355-.355A.454.454,0,0,1,12.64,9l1.039-1.395a.875.875,0,0,0-.164-1.23.9.9,0,0,0-1.23.191L10.7,8.672a3.567,3.567,0,0,0-.684,2.078v3.063a.432.432,0,0,0,.438.438h3.582a.444.444,0,0,0,.438-.3,1.707,1.707,0,0,1,.273-.6l2.844-3.664a1.319,1.319,0,0,0,.3-.82V2.875A.9.9,0,0,0,17.015,2ZM27.658,12.5h1.988V8.608h4.522V6.9H29.646V4.87h4.62V3.162H27.658Zm8.558-3.724c0,2.3,1.33,3.892,4.186,3.892,2.828,0,4.158-1.582,4.158-3.906v-5.6H42.544V8.706a2.156,2.156,0,1,1-4.312,0V3.162H36.216ZM53.4,12.5h1.918V3.162H53.331V9.21L49.005,3.162H46.961V12.5h1.988V6.228Zm4.319,0H61.4c2.926,0,4.956-1.848,4.956-4.662S64.329,3.162,61.4,3.162H57.721Zm1.988-1.75V4.912H61.4a2.733,2.733,0,0,1,2.926,2.926A2.8,2.8,0,0,1,61.4,10.75Zm13.9,1.75h2.282l-2.1-3.556a2.68,2.68,0,0,0,2.044-2.772A2.908,2.908,0,0,0,72.7,3.162H68.329V12.5h1.988V9.154h1.456Zm.2-6.342a1.289,1.289,0,0,1-1.4,1.288H70.317V4.87H72.4A1.289,1.289,0,0,1,73.8,6.158ZM84.424,12.5h2.17L83,3.162H80.5L76.892,12.5h2.184l.588-1.61h4.172ZM81.749,4.884l1.54,4.284H80.2ZM88.016,12.5H90V3.162H88.016Zm3.758-1.316a5.381,5.381,0,0,0,3.962,1.484c2.52,0,3.738-1.288,3.738-3,0-2.072-1.96-2.534-3.5-2.884C94.9,6.536,94.112,6.34,94.112,5.71c0-.56.476-.952,1.372-.952A3.984,3.984,0,0,1,98.158,5.78l1.106-1.456a5.194,5.194,0,0,0-3.64-1.3c-2.2,0-3.542,1.26-3.542,2.814,0,2.086,1.96,2.506,3.486,2.856,1.078.252,1.89.49,1.89,1.19,0,.532-.532,1.05-1.624,1.05a4.094,4.094,0,0,1-2.968-1.26Zm9.6,1.316h6.608V10.778h-4.62V8.608h4.522V6.9H103.36V4.87h4.62V3.162h-6.608Z" transform="translate(345.61 408.75)" fill="#fff"/>
  </g>
</svg>
