<svg xmlns="http://www.w3.org/2000/svg" xmlns:xlink="http://www.w3.org/1999/xlink" width="13" height="14" viewBox="0 0 13 14">
  <defs>
    <clipPath id="clip-path">
      <rect id="Rectangle_2" data-name="Rectangle 2" width="13" height="14" transform="translate(360 361)" fill="#fff"/>
    </clipPath>
  </defs>
  <g id="Mask_Group_1" data-name="Mask Group 1" transform="translate(-360 -361)" clip-path="url(#clip-path)">
    <path id="give" d="M11.51,3.313a.881.881,0,0,0-.875.875V6.156a.216.216,0,0,1-.219.219H9.979a.2.2,0,0,1-.219-.219V2a.9.9,0,0,0-.875-.875A.881.881,0,0,0,8.011,2V6.156a.216.216,0,0,1-.219.219H7.354a.2.2,0,0,1-.219-.219V1.125A.9.9,0,0,0,6.261.25a.881.881,0,0,0-.875.875V6.156a.216.216,0,0,1-.219.219H4.729a.2.2,0,0,1-.219-.219V2a.9.9,0,0,0-.875-.875A.881.881,0,0,0,2.761,2V8.59L2.1,7.715A1.1,1.1,0,0,0,.327,9l3.445,4.731a1.333,1.333,0,0,0,1.066.547h5.387a1.322,1.322,0,0,0,1.285-1.012l.711-3.09a5.535,5.535,0,0,0,.164-1.148V4.188A.9.9,0,0,0,11.51,3.313ZM9.788,10.477l-2,1.941a.315.315,0,0,1-.465,0l-2-1.941A1.394,1.394,0,0,1,5.44,8.426a1.493,1.493,0,0,1,1.914.137l.219.219.191-.219a1.493,1.493,0,0,1,1.914-.137A1.394,1.394,0,0,1,9.788,10.477ZM21.706,7.838a4.755,4.755,0,0,0,4.97,4.844,5.183,5.183,0,0,0,3.976-1.764V7.348H26.2V9.056h2.492V10.19a3.155,3.155,0,0,1-2.016.714A2.908,2.908,0,0,1,23.75,7.838a2.908,2.908,0,0,1,2.926-3.066,2.65,2.65,0,0,1,2.212,1.176l1.652-.9a4.374,4.374,0,0,0-3.864-2.044A4.735,4.735,0,0,0,21.706,7.838ZM32.79,12.5h1.988V3.162H32.79Zm7.02,0H42.3l3.6-9.338H43.632l-2.576,7.182-2.59-7.182H36.2Zm7.512,0H53.93V10.778H49.31V8.608h4.522V6.9H49.31V4.87h4.62V3.162H47.322Zm19.3,0h1.918V3.162H66.556V9.21L62.23,3.162H60.186V12.5h1.988V6.228ZM70.5,7.838a4.879,4.879,0,0,0,9.758,0,4.879,4.879,0,0,0-9.758,0Zm7.714,0a2.844,2.844,0,1,1-5.67,0,2.844,2.844,0,1,1,5.67,0ZM89.077,12.5h2.114l2.66-9.338h-2.24L89.987,9.91,88.223,3.162H86.669L84.891,9.91,83.253,3.162H81.027L83.7,12.5h2.114l1.624-6.412Z" transform="translate(359.882 360.75)" fill="#fff"/>
  </g>
</svg>
