<svg width="25" height="21" viewBox="0 0 25 21" fill="none" xmlns="http://www.w3.org/2000/svg">
<path d="M25 2.74701C24.0802 3.15534 23.0917 3.43034 22.0542 3.5543C23.1135 2.91992 23.9271 1.91471 24.3094 0.716797C23.3187 1.3043 22.2208 1.73138 21.0521 1.96159C20.1177 0.964714 18.7833 0.341797 17.3083 0.341797C13.9969 0.341797 11.5635 3.43138 12.3115 6.63867C8.05 6.42513 4.27083 4.38346 1.74062 1.28034C0.396875 3.58555 1.04375 6.60117 3.32708 8.12825C2.4875 8.10117 1.69583 7.87096 1.00521 7.48659C0.948958 9.86263 2.65208 12.0855 5.11875 12.5803C4.39687 12.7762 3.60625 12.822 2.80208 12.6678C3.45417 14.7053 5.34792 16.1876 7.59375 16.2293C5.4375 17.9199 2.72083 18.6751 0 18.3543C2.26979 19.8095 4.96667 20.6585 7.8625 20.6585C17.3854 20.6585 22.7656 12.6158 22.4406 5.40221C23.4427 4.67825 24.3125 3.77513 25 2.74701Z" fill="white"/>
</svg>
