<svg xmlns="http://www.w3.org/2000/svg" xmlns:xlink="http://www.w3.org/1999/xlink" width="18" height="14" viewBox="0 0 18 14">
  <defs>
    <clipPath id="clip-path">
      <rect id="Rectangle_3" data-name="Rectangle 3" width="18" height="14" transform="translate(357 431)" fill="#fff"/>
    </clipPath>
  </defs>
  <g id="Mask_Group_2" data-name="Mask Group 2" transform="translate(-357 -431)" clip-path="url(#clip-path)">
    <path id="volunteer" d="M13.511,5.5H9.355V7.031a1.969,1.969,0,0,1-3.938,0V3.723L3.64,4.789a1.678,1.678,0,0,0-.848,1.5V7.578L.6,8.836a.869.869,0,0,0-.328,1.2l2.187,3.773a.863.863,0,0,0,1.2.328L6.483,12.5H10.23a1.745,1.745,0,0,0,1.75-1.75h.438a.881.881,0,0,0,.875-.875V8.125h.219a.648.648,0,0,0,.656-.656V6.156A.665.665,0,0,0,13.511,5.5ZM17.53,4.488,15.343.688a.853.853,0,0,0-1.176-.3L11.323,2H8.534a1.844,1.844,0,0,0-.93.273l-.9.574a.836.836,0,0,0-.41.738V7.031A1.063,1.063,0,0,0,7.386,8.125,1.08,1.08,0,0,0,8.48,7.031V4.625h5.031a1.565,1.565,0,0,1,1.531,1.531v.793L17.23,5.691A.885.885,0,0,0,17.53,4.488ZM30.053,12.5h2.492l3.6-9.338H33.875L31.3,10.344l-2.59-7.182H26.441Zm6.791-4.662a4.879,4.879,0,0,0,9.758,0,4.879,4.879,0,0,0-9.758,0Zm7.714,0a2.844,2.844,0,1,1-5.67,0,2.844,2.844,0,1,1,5.67,0Zm4,4.662h5.936V10.75H50.545V3.162H48.557ZM56.1,8.776c0,2.3,1.33,3.892,4.186,3.892,2.828,0,4.158-1.582,4.158-3.906v-5.6H62.431V8.706a2.156,2.156,0,1,1-4.312,0V3.162H56.1ZM73.289,12.5h1.918V3.162H73.219V9.21L68.893,3.162H66.849V12.5h1.988V6.228Zm6.475,0h2V4.912h2.716V3.162H77.034v1.75h2.73Zm6.552,0h6.608V10.778H88.3V8.608h4.522V6.9H88.3V4.87h4.62V3.162H86.317Zm8.722,0h6.608V10.778h-4.62V8.608h4.522V6.9H97.027V4.87h4.62V3.162H95.039Zm14,0h2.282l-2.1-3.556a2.68,2.68,0,0,0,2.044-2.772,2.908,2.908,0,0,0-3.136-3.01h-4.368V12.5h1.988V9.154h1.456Zm.2-6.342a1.289,1.289,0,0,1-1.4,1.288h-2.086V4.87h2.086A1.289,1.289,0,0,1,109.235,6.158Z" transform="translate(356.845 430.736)" fill="#fff"/>
  </g>
</svg>
