<svg width="45" height="45" viewBox="0 0 45 45" fill="none" xmlns="http://www.w3.org/2000/svg">
<path d="M39.5156 15.2812C39.0859 14.8516 38.6562 14.5938 38.2266 14.25C39.5156 13.8203 40.7188 13.2188 41.6641 12.3594C43.8984 9.86719 44.5859 5.91406 44.4141 2.04688C44.4141 1.1875 43.7266 0.585938 42.9531 0.585938C42.6094 0.585938 42.1797 0.5 41.8359 0.5C38.8281 0.5 35.2188 1.10156 32.7266 3.42188C31.7812 4.36719 31.0938 5.48438 30.6641 6.6875C30.4062 6.25781 30.1484 5.91406 29.8047 5.57031L26.7969 2.5625C26.2812 2.04688 25.4219 2.04688 24.9062 2.5625L21.9844 5.48438C20.4375 6.94531 19.6641 8.92188 19.5781 10.8984L19.0625 10.2969C18.5469 9.78125 17.6016 9.78125 17.0859 10.2969L14.25 13.2188C12.7031 14.7656 11.9297 16.6562 11.8438 18.6328L11.2422 18.1172C10.7266 17.6016 9.86719 17.6016 9.35156 18.1172L6.42969 21.0391C3.16406 24.2188 3.16406 29.4609 6.42969 32.6406L8.40625 34.6172L0.84375 42.1797C0.328125 42.6953 0.328125 43.6406 0.84375 44.1562C1.10156 44.4141 1.44531 44.5 1.875 44.5C2.21875 44.5 2.5625 44.4141 2.82031 44.1562L10.2969 36.5938L12.2734 38.5703C13.9062 40.2031 16.0547 40.9766 18.1172 40.9766C20.2656 40.9766 22.3281 40.2031 23.9609 38.5703L26.8828 35.6484C27.3984 35.1328 27.3984 34.2734 26.8828 33.7578L26.2812 33.1562C28.2578 33.0703 30.2344 32.2969 31.6953 30.8359L34.6172 27.9141C35.1328 27.3984 35.1328 26.4531 34.6172 25.9375L34.1016 25.4219C36.0781 25.3359 37.9688 24.5625 39.5156 23.0156L42.4375 20.0938C42.9531 19.5781 42.9531 18.7188 42.4375 18.2031L39.5156 15.2812ZM34.6172 5.39844C36.4219 3.67969 39.4297 3.33594 41.6641 3.25C41.6641 6.42969 40.9766 8.92188 39.6875 10.3828C37.7969 12.1016 34.7891 12.4453 32.5547 12.4453C32.4688 10.2109 32.8984 7.11719 34.6172 5.39844ZM23.875 7.375L25.8516 5.48438L27.8281 7.46094C29.8906 9.60938 29.9766 12.9609 27.9141 15.1953C27.8281 15.1953 27.8281 15.1953 27.8281 15.1953L25.8516 17.1719L23.875 15.1953C21.7266 13.0469 21.7266 9.52344 23.875 7.375ZM16.1406 15.1953L18.1172 13.2188L20.0938 15.2812C21.2109 16.3984 22.9297 19.8359 20.2656 22.8438L18.1172 24.9062L16.1406 22.9297C13.9922 20.7812 13.9922 17.3438 16.1406 15.1953ZM8.40625 30.75C6.25781 28.6016 6.25781 25.0781 8.40625 22.9297L10.2969 21.0391L12.2734 23.0156C14.3359 25.0781 14.5078 28.3438 12.4453 30.5781L10.3828 32.7266L8.40625 30.75ZM21.9844 36.5938C19.8359 38.7422 16.3984 38.7422 14.25 36.5938L12.2734 34.7031L14.25 32.7266C16.3984 30.5781 19.8359 30.5781 21.9844 32.7266L23.9609 34.7031L21.9844 36.5938ZM29.8047 28.8594C27.6562 31.0078 24.1328 31.0078 21.9844 28.8594L20.0938 26.8828L21.9844 24.9922C24.1328 22.8438 27.6562 22.8438 29.8047 24.9922L31.6953 26.8828L29.8047 28.8594ZM37.5391 21.125C35.3906 23.2734 31.9531 23.2734 29.8047 21.125L27.8281 19.1484L29.7188 17.1719C31.8672 15.1094 35.3906 15.0234 37.5391 17.1719L39.5156 19.1484L37.5391 21.125Z" fill="#E99999"/>
</svg>
