<svg width="27" height="22" viewBox="0 0 27 22" fill="none" xmlns="http://www.w3.org/2000/svg">
<path d="M26.9864 2.67903C25.9949 3.11874 24.9294 3.41592 23.8111 3.54958C24.9526 2.86533 25.8292 1.78187 26.242 0.490933C25.1738 1.12443 23.9906 1.58454 22.7313 1.83253C21.7227 0.758051 20.2859 0.0866089 18.6958 0.0866089C15.6425 0.0866089 13.1671 2.56193 13.1671 5.61506C13.1671 6.04837 13.2161 6.47033 13.3103 6.87495C8.71547 6.6444 4.64177 4.44339 1.915 1.0986C1.43912 1.91513 1.16648 2.86483 1.16648 3.87801C1.16648 5.79603 2.14259 7.48824 3.62603 8.47963C2.7197 8.45095 1.86729 8.20226 1.12183 7.78818C1.12143 7.81124 1.12143 7.83441 1.12143 7.85767C1.12143 10.5363 3.02714 12.7709 5.55628 13.2787C5.09232 13.405 4.60392 13.4726 4.09965 13.4726C3.74343 13.4726 3.39706 13.438 3.05957 13.3734C3.76304 15.5699 5.80477 17.1683 8.22401 17.2129C6.33191 18.6957 3.94805 19.5795 1.3579 19.5795C0.911681 19.5795 0.471577 19.5534 0.0390625 19.5023C2.48571 21.0709 5.39177 21.9861 8.5139 21.9861C18.6829 21.9861 24.2437 13.5619 24.2437 6.25615C24.2437 6.01643 24.2384 5.77799 24.2277 5.54094C25.3078 4.76147 26.2452 3.78772 26.9864 2.67903Z" fill="#A6A4A3"/>
</svg>
