<svg width="31" height="23" viewBox="0 0 31 23" fill="none" xmlns="http://www.w3.org/2000/svg">
<path d="M30.0281 4.17813C29.6844 2.87188 28.6531 1.84063 27.3469 1.47969C24.9922 0.84375 15.5391 0.84375 15.5391 0.84375C15.5391 0.84375 6.08594 0.84375 3.71406 1.47969C2.40781 1.82344 1.39375 2.85469 1.03281 4.17813C0.414063 6.55 0.414062 11.5 0.414062 11.5C0.414062 11.5 0.414062 16.45 1.05 18.8219C1.39375 20.1281 2.425 21.1594 3.73125 21.5203C6.08594 22.1563 15.5391 22.1563 15.5391 22.1563C15.5391 22.1563 24.9922 22.1563 27.3641 21.5203C28.6703 21.1766 29.6844 20.1453 30.0453 18.8219C30.6641 16.45 30.6641 11.5 30.6641 11.5C30.6641 11.5 30.6641 6.55 30.0281 4.17813Z" fill="#A6A4A3"/>
<path d="M12.4453 16.0033V6.99701L20.3516 11.5001L12.4453 16.0033Z" fill="#211C18"/>
</svg>
