<svg width="38" height="68" viewBox="0 0 38 68" fill="none" xmlns="http://www.w3.org/2000/svg">
<path d="M19 0.375C8.53125 0.375 0.15625 8.88086 0.15625 19.2188C0.15625 29.0332 7.48438 36.8848 16.9062 37.9316V64.8887L18.3457 67.1133C18.6074 67.5059 19.2617 67.5059 19.5234 67.1133L21.0938 64.8887V37.9316C30.3848 36.8848 37.8438 29.0332 37.8438 19.2188C37.8438 8.88086 29.3379 0.375 19 0.375ZM19 33.875C10.8867 33.875 4.34375 27.332 4.34375 19.2188C4.34375 11.2363 10.8867 4.5625 19 4.5625C26.9824 4.5625 33.6562 11.2363 33.6562 19.2188C33.6562 27.332 26.9824 33.875 19 33.875ZM19 8.75C13.1113 8.75 8.53125 13.4609 8.53125 19.2188C8.53125 20.3965 9.44727 21.3125 10.625 21.3125C11.6719 21.3125 12.7188 20.3965 12.7188 19.2188C12.7188 15.8164 15.4668 12.9375 19 12.9375C20.0469 12.9375 21.0938 12.0215 21.0938 10.8438C21.0938 9.79688 20.0469 8.75 19 8.75Z" fill="#D33334"/>
</svg>
