<svg width="68" height="51" viewBox="0 0 68 51" fill="none" xmlns="http://www.w3.org/2000/svg">
<path d="M61.2188 0.75H6.78125C3.24805 0.75 0.5 3.62891 0.5 7.03125V44.7188C0.5 48.252 3.24805 51 6.78125 51H61.2188C64.6211 51 67.5 48.252 67.5 44.7188V7.03125C67.5 3.62891 64.6211 0.75 61.2188 0.75ZM6.78125 4.9375H61.2188C62.2656 4.9375 63.3125 5.98438 63.3125 7.03125V12.5273C60.4336 14.8828 56.2461 18.2852 43.5527 28.3613C41.3281 30.1934 37.0098 34.3809 34 34.25C30.8594 34.3809 26.541 30.1934 24.3164 28.3613C11.623 18.2852 7.43555 14.8828 4.6875 12.5273V7.03125C4.6875 5.98438 5.60352 4.9375 6.78125 4.9375ZM61.2188 46.8125H6.78125C5.60352 46.8125 4.6875 45.8965 4.6875 44.7188V17.8926C7.56641 20.3789 12.2773 24.1738 21.6992 31.6328C24.4473 33.8574 29.1582 38.5684 34 38.4375C38.7109 38.5684 43.4219 33.8574 46.1699 31.6328C55.5918 24.1738 60.3027 20.3789 63.3125 17.8926V44.7188C63.3125 45.8965 62.2656 46.8125 61.2188 46.8125Z" fill="#D33334"/>
</svg>
