<svg width="68" height="68" viewBox="0 0 68 68" fill="none" xmlns="http://www.w3.org/2000/svg">
<path d="M64.2285 3.64648L51.1426 0.505859C49.1797 0.113281 47.2168 1.0293 46.4316 2.86133L40.2812 17.125C39.627 18.8262 40.0195 20.7891 41.459 21.8359L48.5254 27.5938C44.0762 36.7539 36.748 44.082 27.5879 48.5312L21.8301 41.4648C20.7832 40.0254 18.8203 39.6328 17.1191 40.2871L2.85547 46.4375C1.1543 47.2227 0.107422 49.1855 0.5 51.0176L3.64062 64.2344C4.0332 66.0664 5.60352 67.375 7.56641 67.375C40.543 67.375 67.5 40.6797 67.5 7.57227C67.5 5.60938 66.1914 4.03906 64.2285 3.64648ZM7.69727 63.1875L4.6875 50.2324L18.6895 44.2129L26.541 53.7656C40.0195 47.3535 47.3477 40.0254 53.7598 26.5469L44.207 18.6953L50.2266 4.69336L63.1816 7.70312C63.1816 38.3242 38.3184 63.1875 7.69727 63.1875Z" fill="#D33334"/>
</svg>
