<svg width="60" height="60" viewBox="0 0 60 60" fill="none" xmlns="http://www.w3.org/2000/svg">
<path d="M50.4141 9.19922C45.0488 3.70312 37.7207 0.5625 29.8691 0.5625C13.9043 0.5625 0.818359 13.6484 0.818359 29.6133C0.818359 34.8477 2.25781 39.8203 4.74414 44.1387L0.6875 59.1875L15.998 55.2617C20.3164 57.4863 25.0273 58.7949 29.8691 58.7949C45.9648 58.7949 59.3125 45.709 59.3125 29.7441C59.3125 21.8926 55.9102 14.6953 50.4141 9.19922ZM29.8691 53.8223C25.5508 53.8223 21.3633 52.6445 17.5684 50.4199L16.7832 49.8965L7.62305 52.3828L10.1094 43.4844L9.45508 42.5684C7.09961 38.6426 5.79102 34.1934 5.79102 29.6133C5.79102 16.3965 16.6523 5.53516 30 5.53516C36.4121 5.53516 42.4316 8.02148 47.0117 12.6016C51.5918 17.1816 54.3398 23.2012 54.3398 29.7441C54.3398 42.9609 43.2168 53.8223 29.8691 53.8223ZM43.2168 35.7637C42.4316 35.3711 38.8984 33.6699 38.2441 33.4082C37.5898 33.1465 37.0664 33.0156 36.543 33.8008C36.1504 34.4551 34.7109 36.1562 34.3184 36.6797C33.7949 37.0723 33.4023 37.2031 32.748 36.8105C28.4297 34.7168 25.6816 33.0156 22.8027 28.1738C22.0176 26.8652 23.5879 26.9961 24.8965 24.248C25.1582 23.7246 25.0273 23.332 24.8965 22.9395C24.7656 22.5469 23.1953 19.0137 22.6719 17.5742C22.0176 16.1348 21.4941 16.2656 20.9707 16.2656C20.5781 16.2656 20.0547 16.2656 19.6621 16.2656C19.1387 16.2656 18.3535 16.3965 17.6992 17.1816C17.0449 17.9668 15.2129 19.668 15.2129 23.2012C15.2129 26.8652 17.6992 30.2676 18.0918 30.791C18.4844 31.1836 23.1953 38.5117 30.5234 41.6523C35.1035 43.7461 36.9355 43.877 39.291 43.4844C40.5996 43.3535 43.4785 41.7832 44.1328 40.082C44.7871 38.3809 44.7871 36.9414 44.5254 36.6797C44.3945 36.2871 43.8711 36.1562 43.2168 35.7637Z" fill="#D33334"/>
</svg>
