<svg width="220" height="65" viewBox="0 0 220 65" fill="none" xmlns="http://www.w3.org/2000/svg">
<path d="M13.8532 53.595H41.3552V64H0.900879V1.13815H13.8532V53.595Z" fill="#A6A4A3"/>
<path d="M97.6978 33.9938C97.6978 40.1821 96.604 45.6077 94.4165 50.2705C92.229 54.9334 89.0917 58.5312 85.0045 61.0641C80.9461 63.597 76.2833 64.8635 71.016 64.8635C65.8063 64.8635 61.1579 63.6114 57.0707 61.1073C52.9835 58.6032 49.8174 55.0341 47.5723 50.4001C45.3273 45.7372 44.1904 40.3836 44.1616 34.3392V31.2307C44.1616 25.0423 45.2697 19.6024 47.486 14.9108C49.7311 10.1904 52.8828 6.57811 56.9412 4.074C61.0283 1.54111 65.6912 0.274658 70.9297 0.274658C76.1682 0.274658 80.8166 1.54111 84.875 4.074C88.9622 6.57811 92.1139 10.1904 94.3302 14.9108C96.5752 19.6024 97.6978 25.0279 97.6978 31.1875V33.9938ZM84.5728 31.1443C84.5728 24.553 83.3927 19.5448 81.0325 16.1196C78.6723 12.6945 75.3047 10.9819 70.9297 10.9819C66.5835 10.9819 63.2302 12.6801 60.87 16.0765C58.5098 19.4441 57.3154 24.3947 57.2866 30.9284V33.9938C57.2866 40.4124 58.4667 45.3918 60.8269 48.9321C63.1871 52.4724 66.5835 54.2426 71.016 54.2426C75.3622 54.2426 78.701 52.5444 81.0325 49.148C83.3639 45.7229 84.544 40.7434 84.5728 34.2097V31.1443Z" fill="#A6A4A3"/>
<path d="M156.847 56.0559C154.515 58.8478 151.22 61.021 146.96 62.5752C142.7 64.1007 137.979 64.8635 132.798 64.8635C127.359 64.8635 122.581 63.6834 118.465 61.3232C114.377 58.9342 111.211 55.4802 108.966 50.9613C106.75 46.4424 105.613 41.132 105.555 35.03V30.7557C105.555 24.4811 106.606 19.0555 108.707 14.479C110.837 9.87375 113.888 6.36224 117.86 3.94448C121.861 1.49793 126.538 0.274658 131.892 0.274658C139.347 0.274658 145.175 2.0592 149.377 5.62828C153.58 9.16857 156.069 14.3351 156.847 21.1279H144.24C143.664 17.53 142.383 14.8964 140.397 13.227C138.44 11.5576 135.734 10.7228 132.28 10.7228C127.877 10.7228 124.523 12.3779 122.221 15.6879C119.918 18.9979 118.752 23.9198 118.724 30.4535V34.4687C118.724 41.06 119.976 46.0395 122.48 49.4071C124.984 52.7747 128.654 54.4585 133.489 54.4585C138.354 54.4585 141.822 53.4223 143.894 51.3499V40.5131H132.108V30.9716H156.847V56.0559Z" fill="#A6A4A3"/>
<path d="M219.018 33.9938C219.018 40.1821 217.924 45.6077 215.736 50.2705C213.549 54.9334 210.412 58.5312 206.324 61.0641C202.266 63.597 197.603 64.8635 192.336 64.8635C187.126 64.8635 182.478 63.6114 178.391 61.1073C174.303 58.6032 171.137 55.0341 168.892 50.4001C166.647 45.7372 165.51 40.3836 165.481 34.3392V31.2307C165.481 25.0423 166.59 19.6024 168.806 14.9108C171.051 10.1904 174.203 6.57811 178.261 4.074C182.348 1.54111 187.011 0.274658 192.25 0.274658C197.488 0.274658 202.136 1.54111 206.195 4.074C210.282 6.57811 213.434 10.1904 215.65 14.9108C217.895 19.6024 219.018 25.0279 219.018 31.1875V33.9938ZM205.893 31.1443C205.893 24.553 204.713 19.5448 202.352 16.1196C199.992 12.6945 196.625 10.9819 192.25 10.9819C187.903 10.9819 184.55 12.6801 182.19 16.0765C179.83 19.4441 178.635 24.3947 178.606 30.9284V33.9938C178.606 40.4124 179.787 45.3918 182.147 48.9321C184.507 52.4724 187.903 54.2426 192.336 54.2426C196.682 54.2426 200.021 52.5444 202.352 49.148C204.684 45.7229 205.864 40.7434 205.893 34.2097V31.1443Z" fill="#A6A4A3"/>
</svg>
