<svg width="200" height="77" viewBox="0 0 200 77" fill="none" xmlns="http://www.w3.org/2000/svg">
<path d="M50.7828 69.5702C33.8106 69.5702 20 55.7642 20 38.7874C20 21.8106 33.8106 8 50.7828 8C67.7551 8 81.5656 21.8106 81.5656 38.7874C81.5656 55.7642 67.7596 69.5702 50.7828 69.5702ZM50.7828 8.18787C33.9114 8.18787 20.1833 21.916 20.1833 38.7874C20.1833 55.6588 33.9114 69.3869 50.7828 69.3869C67.6542 69.3869 81.3823 55.6588 81.3823 38.7874C81.3823 21.916 67.6588 8.18787 50.7828 8.18787Z" fill="#7A7774"/>
<path d="M71.5454 48.0391L69.4697 51.7827L70.2991 52.2455L71.8433 49.4595L76.6178 52.1217L77.1448 51.1641L71.5454 48.0391ZM73.2912 41.8623L73.1263 42.9896L74.5925 43.9381L73.8823 46.3391L72.1457 46.4491L71.7516 47.5442L78.634 47.0722L78.9547 45.9542L73.2912 41.8623ZM77.7634 46.1925V46.2108L77.7588 46.22L74.7667 46.2887L75.3119 44.4513L77.7634 46.1925ZM73.3645 36.3225L73.4195 37.3673L78.0612 37.1152V37.1427L73.4287 40.2082L73.3691 41.3675L79.6833 41.899L79.7933 40.7168L75.0553 40.4006V40.3365L79.8437 37.239L79.7612 36.0018L73.3645 36.3225ZM78.0658 31.3967C78.4232 32.6614 77.3922 33.6237 76.2284 33.9215C75.0645 34.2239 73.809 34.0269 73.4653 32.7576C73.1171 31.4609 74.1297 30.549 75.2799 30.1962C76.4254 29.848 77.6992 30.1092 78.0658 31.3967ZM78.9272 31.1172C78.4186 29.321 76.6683 28.5741 74.9591 29.1469C73.2637 29.7151 72.1182 31.2043 72.6131 33.0142C73.0988 34.7784 74.8033 35.3878 76.5308 34.9296C78.272 34.4576 79.4359 32.8997 78.9272 31.1172ZM71.0322 28.5329L71.495 29.5272L77.2777 26.7917L76.8149 25.8019L71.0322 28.5329ZM72.7276 21.2336L73.7632 22.7411L69.3093 25.724L69.905 26.6405L74.3589 23.6621L75.4861 25.3071L76.3017 24.8351L73.4791 20.6516L72.7276 21.2336ZM64.8234 20.9449L65.7078 21.6826L67.2886 20.8487L69.0482 22.6357L68.2829 24.3723L69.0115 25.2796L71.8433 18.7455L70.991 17.9298L64.8234 20.9449ZM70.6702 19.1029L70.684 19.1166H70.6886L69.4101 21.8338L68.0722 20.4408L70.6702 19.1029ZM60.1863 18.104L61.1485 18.5576L63.3022 14.507L63.3251 14.5207L63.6641 20.0834L64.5714 20.7524L67.9897 15.3867L67.1191 14.704L64.5714 18.6721L64.2461 12.9949L63.1784 12.4679L60.1863 18.104ZM54.7244 16.3994L55.7233 16.6239L56.4335 14.1175L58.051 14.562C59.0224 14.8277 59.0408 15.3959 58.7246 16.4956C58.6375 16.7935 58.5459 17.1463 58.633 17.4533L59.7372 17.9069C59.5769 17.5999 59.6868 16.7705 59.8885 16.0695C60.1634 15.1164 59.7739 14.6994 59.4211 14.5436L59.4302 14.5253C59.641 14.5161 60.4658 14.452 60.7957 13.2927C61.089 12.2709 60.6537 11.3728 59.334 11.0062L56.4381 10.2135L54.7244 16.3994ZM57.2491 11.3728L58.9812 11.8448C59.531 11.996 59.9205 12.3809 59.7006 13.1507C59.5173 13.783 59.1232 13.9984 58.4588 13.8151L56.6672 13.3202L57.2491 11.3728ZM49.5466 16.1245L54.115 16.2894L54.1333 15.3455L50.66 15.1989L50.7196 13.279L53.8767 13.3523L53.8904 12.4588L50.7379 12.3809L50.7654 10.6763L54.147 10.8458L54.1608 9.89734L49.684 9.70947L49.5466 16.1245ZM43.6173 11.6294L45.4868 11.3178L46.3116 16.491L47.393 16.3215L46.5682 11.1299L48.5156 10.7909L48.4148 9.79653L43.3515 10.658L43.6173 11.6294ZM40.1623 18.7088L41.0742 18.2643L39.2184 14.0213L39.2413 14.0121L43.4752 17.2654L44.5749 16.9401L42.6367 10.8733L41.5966 11.1758L42.9987 15.6983L42.9437 15.7029L38.6457 12.3442L37.5872 12.8803L40.1623 18.7088ZM38.3707 19.7902L39.3009 19.2128L35.9422 13.7922L35.012 14.3741L38.3707 19.7902ZM32.052 25.9211L34.9616 22.4891L34.3064 21.8109L32.0886 24.4731L30.6498 23.2039L32.6247 20.7937L32.0016 20.1705L29.9488 22.5853L28.6933 21.4489L30.9064 18.9287L30.2283 18.2139L27.2957 21.6918L32.052 25.9211ZM24.9222 27.7356L25.8523 25.9669L30.4161 28.8032L30.9339 27.8364L26.393 25.0047L27.369 23.2222L26.5763 22.7319L24.0424 27.337L24.9222 27.7356ZM29.2798 31.6213L29.6555 30.5903L23.6621 28.3588L23.2863 29.3898L29.2798 31.6213ZM28.0655 38.6778L28.1067 37.6834L23.3642 37.2527L28.2763 36.0201L28.3633 35.1266L23.8224 32.4186L28.7253 33.3671L28.9773 32.3956L22.6677 31.1493L22.3699 32.6156L26.9658 35.342L26.9612 35.3603L21.7926 36.5012L21.7192 38.1783L28.0655 38.6778ZM22.7823 42.4626C22.6311 41.1155 23.6941 40.5106 24.8855 40.3823C26.0952 40.2494 27.3507 40.6756 27.5202 42.0044C27.6898 43.3515 26.5442 43.9747 25.3575 44.1626C24.1707 44.3459 22.9335 43.7914 22.7823 42.4626ZM21.875 42.6001C22.095 44.4604 23.8041 45.5189 25.5728 45.2394C27.3415 44.9645 28.6566 43.7364 28.4 41.8623C28.148 40.002 26.6175 39.2322 24.8488 39.3376C23.0664 39.4476 21.6597 40.726 21.875 42.6001ZM24.8947 46.5315C23.7125 47.2005 23.2313 48.6073 23.8179 49.8903C24.6289 51.6864 26.4984 52.1584 28.1297 51.4298C29.7655 50.7013 30.7186 49.0975 29.9259 47.393C29.3256 46.1054 28.0334 45.5189 26.5901 45.9725L26.9429 46.9485C27.8089 46.6553 28.7345 46.9485 29.1286 47.8329C29.6738 49.0563 28.707 49.9773 27.6119 50.463C26.5122 50.9533 25.2337 50.7929 24.693 49.5649C24.3219 48.731 24.661 48.0528 25.2383 47.5946" fill="#7A7774"/>
<path d="M65.0438 64.212L68.7554 61.6689L68.2239 60.8716L65.4196 62.8236L64.3657 61.2656L66.9134 59.4649L66.4093 58.7134L63.8617 60.5142L62.9132 59.0525L65.6945 57.1326L65.1584 56.3398L61.4744 58.8509" fill="#7A7774"/>
<path d="M60.2731 66.3634L61.4094 65.951L61.0337 59.0686L60.0348 59.5177L60.4014 64.9154L60.383 64.9246L57.0564 60.6082L55.9888 60.9244" fill="#7A7774"/>
<path d="M52.1565 67.8664L56.6241 67.3303L56.4317 66.4138L53.0821 66.7941L52.8484 64.8788L55.781 64.526L55.6023 63.6462L52.7018 63.9945L52.5048 62.2624L55.7444 61.9325L55.5702 60.9932L51.428 61.488" fill="#7A7774"/>
<path d="M38.4004 65.1125L42.6343 66.6933L42.8771 65.7815L39.7384 64.6039L40.3753 62.7985L43.1979 63.8845L43.427 63.023L40.6685 61.96L41.2459 60.2967L44.2609 61.5155L44.5038 60.622L40.5769 59.0732" fill="#7A7774"/>
<path d="M38.4873 61.4038L36.2558 59.9925L35.7884 60.6707L37.2363 61.5963C36.6269 62.4531 35.6647 62.6593 34.7345 62.0041C33.6302 61.2206 33.841 59.8917 34.51 58.9157C35.1835 57.9352 36.2878 57.3349 37.3967 58.1093C38.052 58.5629 38.414 59.3235 38.0382 60.0567L38.973 60.5882C39.6236 59.3373 39.0325 58.1643 37.8962 57.3761C36.3382 56.2902 34.597 56.8217 33.6027 58.2834C32.6038 59.7451 32.6817 61.6559 34.235 62.7372C34.872 63.1771 35.4585 63.2642 36.3199 63.0626L36.1733 63.9561L36.7552 64.2998" fill="#7A7774"/>
<path d="M44.4033 67.1664L45.4526 67.3909L46.2866 62.7309H46.3095L48.8297 67.8079L50.0073 67.8675L50.3051 61.48L49.3245 61.4571L49.1229 66.14L49.1046 66.1354L46.6027 61.0951L45.4893 60.866" fill="#7A7774"/>
<path d="M50.7827 59.9479C39.1166 59.9479 29.627 50.4583 29.627 38.7922C29.627 27.126 39.1166 17.6318 50.7827 17.6318C62.4488 17.6318 71.943 27.1214 71.943 38.7922C71.943 50.4537 62.4488 59.9479 50.7827 59.9479ZM50.7827 17.8151C39.2174 17.8151 29.8102 27.2223 29.8102 38.7922C29.8102 50.3575 39.2174 59.7646 50.7827 59.7646C62.348 59.7646 71.7597 50.3575 71.7597 38.7922C71.7597 27.2223 62.348 17.8151 50.7827 17.8151Z" fill="#7A7774"/>
<path d="M46.3194 34.3196V23.5928H55.2546V34.3196H65.9814V43.2593H55.25V53.9861H46.3149V43.2593H35.5835V34.3196" fill="#7A7774"/>
<path d="M88.3572 53.2253H92.2016V24.3486H88.3572V53.2253Z" fill="#7A7774"/>
<path d="M118.973 33.0452C118.167 28.9625 114.886 26.9005 110.886 26.9005C104.008 26.9005 101.098 32.5595 101.098 38.5896C101.098 45.1833 104.008 50.6818 110.927 50.6818C115.981 50.6818 118.895 47.1215 119.262 42.3515H123.102C122.373 49.55 117.887 53.9168 110.606 53.9168C101.63 53.9168 97.2583 47.2819 97.2583 38.8736C97.2583 30.5021 102.033 23.6655 110.927 23.6655C116.952 23.6655 121.929 26.9005 122.817 33.0497" fill="#7A7774"/>
<path d="M127.867 53.2262H131.711V40.8911H141.096C144.816 40.8911 145.504 43.2784 145.907 46.1056C146.475 48.9374 145.866 52.0532 146.961 53.2262H151.25C149.632 51.2468 149.792 48.0897 149.554 45.2579C149.27 42.4261 148.583 39.961 145.224 39.3149V39.2324C148.702 38.261 150.242 35.3926 150.242 31.9147C150.242 27.3005 146.883 24.3496 141.467 24.3496H127.876V53.2262H127.867ZM131.711 37.6561V27.5846H141.256C144.858 27.5846 146.393 29.6878 146.393 32.5196C146.393 36.726 143.318 37.6561 139.721 37.6561" fill="#7A7774"/>
<path d="M175.876 33.0452C175.065 28.9625 171.789 26.9005 167.784 26.9005C160.906 26.9005 157.997 32.5595 157.997 38.5896C157.997 45.1833 160.906 50.6818 167.825 50.6818C172.879 50.6818 175.794 47.1215 176.156 42.3515H180C179.271 49.55 174.786 53.9168 167.505 53.9168C158.528 53.9168 154.157 47.2819 154.157 38.8736C154.157 30.5021 158.931 23.6655 167.825 23.6655C173.851 23.6655 178.827 26.9005 179.716 33.0497" fill="#7A7774"/>
</svg>
