<svg width="302" height="242" viewBox="0 0 302 242" fill="none" xmlns="http://www.w3.org/2000/svg">
<path d="M300.562 98.9375L296.812 92.375C295.875 90.5 293.531 90.0312 292.125 90.9688L241.5 120.5V113C241.5 100.812 231.188 90.5 219 90.5H151.5V120.031C151.5 127.531 146.344 134.094 138.844 135.5C129.469 136.906 121.5 129.875 121.5 120.5V76.4375C121.5 69.875 124.781 63.7812 129.938 60.5L145.875 50.6562C151.031 47.375 157.125 45.5 163.688 45.5H211.969L267.75 14.0938C269.156 13.1562 270.094 10.8125 269.156 8.9375L265.406 2.375C264 0.96875 261.656 0.03125 260.25 0.96875L208.219 30.5H163.688C154.312 30.5 145.406 33.3125 137.906 38L121.969 47.8438C114 53 108.844 61.4375 106.969 70.8125L77.9062 88.1562C67.5938 94.25 61.5 105.031 61.5 117.219V135.031L3.375 168.312C1.5 169.25 0.5625 171.594 1.96875 173L5.71875 179.562C6.65625 181.438 9 182.375 10.4062 180.969L76.5 143.938V117.219C76.5 110.656 79.7812 104.094 85.4062 100.812L106.5 88.625V119.562C106.5 135.031 117.75 149.094 133.219 150.5C151.031 152.375 166.5 138.312 166.5 120.5V105.5H219C222.75 105.5 226.5 109.25 226.5 113V128C226.5 132.219 222.75 135.5 219 135.5H207.75V152.375C207.75 161.75 200.25 169.25 190.875 169.25H183.375V176.75C183.375 187.062 174.938 195.5 164.156 195.5H113.062L58.6875 227.375C57.2812 228.312 56.3438 230.656 57.75 232.531L61.5 238.625C62.4375 240.5 64.7812 241.438 66.1875 240.031L117.281 210.5H164.156C180.562 210.5 194.156 199.25 197.438 183.781C211.969 180.5 222.75 167.844 222.75 152.375V150.5C228.844 149.094 234 145.344 237.281 140.188L299.625 104.094C301.031 103.156 301.969 100.812 300.562 98.9375Z" fill="white"/>
</svg>
