<svg width="300" height="240" viewBox="0 0 300 240" fill="none" xmlns="http://www.w3.org/2000/svg">
<path d="M19.2188 157.031C18.2812 157.5 17.3438 158.906 17.3438 160.312C17.3438 160.781 17.8125 161.719 17.8125 162.188L21.5625 168.281C22.5 169.688 23.9062 170.156 24.8438 170.156C25.3125 170.156 26.25 170.156 26.7188 169.688L73.5938 142.969C70.3125 139.219 67.5 135 65.1562 130.781L19.2188 157.031ZM52.5 82.5H3.75C1.40625 82.5 0 84.375 0 86.25V93.75C0 96.0938 1.40625 97.5 3.75 97.5H53.4375C52.5 92.8125 52.5 87.6562 52.5 82.5ZM19.2188 23.4375L59.0625 46.875C60.9375 42.1875 63.2812 37.5 66.0938 33.2812L26.7188 10.7812C26.25 10.3125 25.3125 10.3125 24.8438 10.3125C23.9062 10.3125 22.5 10.7812 21.5625 12.1875L17.8125 18.2812C16.875 20.1562 17.3438 22.5 19.2188 23.4375ZM280.312 23.4375C281.25 22.9688 282.188 21.5625 282.188 20.1562C282.188 19.6875 281.719 18.75 281.719 18.2812L277.969 12.1875C277.031 10.7812 275.625 10.3125 274.688 10.3125C274.219 10.3125 273.281 10.3125 272.812 10.7812L233.438 33.2812C236.25 37.5 238.594 41.7188 240.469 46.4062L280.312 23.4375ZM296.25 82.5H247.5C247.5 87.6562 246.562 92.8125 246.094 97.5H296.25C298.125 97.5 300 96.0938 300 93.75V86.25C300 84.375 298.125 82.5 296.25 82.5ZM280.312 157.031L234.375 130.312C232.031 135 229.219 138.75 225.938 142.969L272.812 169.688C274.688 171.094 276.562 170.156 277.969 168.281L281.719 162.188C282.656 160.312 282.188 157.969 280.312 157.031ZM150 30C120.938 30 97.5 53.9062 97.5 82.5C97.5 86.7188 100.781 90 105 90C108.75 90 112.5 86.7188 112.5 82.5C112.5 61.875 128.906 45 150 45C153.75 45 157.5 41.7188 157.5 37.5C157.5 33.75 153.75 30 150 30ZM150 0C101.719 0 67.0312 39.375 67.5 82.9688C67.5 103.594 75 122.344 87.6562 136.875C99.8438 150.938 111.094 172.969 112.5 180V215.625C112.5 217.031 112.969 218.438 113.438 219.844L125.156 236.719C126.562 239.062 128.906 240 131.25 240H168.281C170.625 240 172.969 239.062 174.375 236.719L186.094 219.844C186.562 218.438 187.031 217.031 187.031 215.625L187.5 180C188.438 172.969 199.688 150.469 211.875 136.875C224.531 122.344 232.5 103.594 232.5 82.5C232.5 37.0312 195.469 0 150 0ZM172.031 213.281L164.062 225H135.469L127.5 213.281V210H172.031V213.281ZM172.031 195H127.5L127.031 180H172.5L172.031 195ZM200.625 127.031C194.062 134.531 183.75 149.531 176.719 165H122.812C115.781 149.531 105.469 134.531 98.9062 127.031C88.125 114.844 82.5 98.9062 82.5 82.5C82.0312 46.875 110.625 15 150 15C187.031 15 217.5 45.4688 217.5 82.5C217.5 98.9062 211.406 114.844 200.625 127.031Z" fill="white"/>
</svg>
