<svg width="271" height="243" viewBox="0 0 271 243" fill="none" xmlns="http://www.w3.org/2000/svg">
<path d="M160.812 91.9375C157.531 90.0625 152.844 91.9375 150.969 95.6875C149.094 99.4375 150.969 103.656 154.719 105.531C161.281 108.812 165.5 114.906 165.5 121C165.5 127.562 161.281 133.656 154.719 136.938C150.969 138.812 149.094 143.031 150.969 146.781C152.844 150.531 157.531 152.406 160.812 150.531C173 144.906 180.5 133.656 180.5 121C180.5 108.812 173 97.5625 160.812 91.9375ZM108.781 31C105.969 31 103.156 32.4062 101.281 34.75L59.5625 76H11.75C5.1875 76 0.5 81.1562 0.5 87.25V154.75C0.5 161.312 5.1875 166 11.75 166H59.5625L101.281 207.719C103.156 210.062 105.969 211 108.781 211C114.875 211 120.5 206.781 120.5 199.75V42.7188C120.5 35.6875 114.875 31 108.781 31ZM105.5 190.844L65.6562 151H15.5V91H65.6562L105.5 51.625V190.844ZM197.844 1.9375C194.094 0.0625 189.406 1.46875 187.531 5.21875C185.656 8.96875 187.062 13.6562 190.812 15.5312C230.656 36.1562 255.031 76.9375 255.031 121C255.031 165.531 230.656 206.312 190.812 226.938C187.062 228.812 185.656 233.5 187.531 237.25C189.406 241 194.094 242.406 197.844 240.531C242.375 217.094 270.5 171.156 270.5 121C270.5 71.3125 242.375 25.375 197.844 1.9375ZM225.5 121C225.5 90.0625 209.094 61.9375 183.781 47.4062C180.031 45.0625 175.344 46.4688 173.469 50.2188C171.125 53.5 172.531 58.1875 176.281 60.0625C196.906 72.25 210.031 95.6875 210.031 121C210.031 146.781 196.906 170.219 176.281 182.406C172.531 184.281 171.125 188.969 173.469 192.25C175.344 196 180.031 197.406 183.781 195.062C209.094 180.531 225.5 152.406 225.5 121Z" fill="white"/>
</svg>
