<svg width="44" height="45" viewBox="0 0 44 45" fill="none" xmlns="http://www.w3.org/2000/svg">
<path d="M42.5391 25.25H38.5C33.3438 25.25 26.5547 28.6016 23.375 32.6406V25.25C30.1641 25.25 35.75 19.75 35.75 12.875V1.875C35.6641 1.1875 35.0625 0.585938 34.375 0.585938C34.1172 0.585938 33.6875 0.671875 33.5156 0.84375L27.1562 5.39844L23.0312 1.01562C22.7734 0.757812 22.3438 0.585938 22 0.585938C21.5703 0.585938 21.1406 0.757812 20.8828 1.01562L16.7578 5.39844L10.3984 0.84375C10.2266 0.671875 9.79688 0.585938 9.625 0.585938C8.85156 0.585938 8.25 1.1875 8.25 1.875V12.875C8.25 19.75 13.75 25.25 20.625 25.25V32.6406C17.3594 28.6016 10.5703 25.25 5.41406 25.25H1.375C0.515625 25.25 -0.0859375 26.0234 0 26.9688C0.859375 36.8516 9.10938 44.5 19.1641 44.5H24.75C34.8047 44.5 43.0547 36.8516 43.9141 26.9688C44 26.0234 43.3984 25.25 42.5391 25.25ZM11 12.875V4.625L17.1016 9.09375L22 3.9375L26.8125 9.09375L33 4.625V12.875C33 18.2031 28.6172 22.5 23.375 22.5H20.625C15.2969 22.5 11 18.2031 11 12.875ZM20.625 41.75H19.1641C11.0859 41.75 4.21094 35.8203 2.83594 28H5.41406C10.5703 28 16.9297 31.6094 19.5938 36.0781C20.7969 38.0547 20.625 39.6016 20.625 41.75ZM24.75 41.75H23.375C23.375 39.5156 23.2031 38.0547 24.3203 36.0781C26.9844 31.6094 33.3438 28.0859 38.5 28H41.0781C39.7031 35.8203 32.8281 41.75 24.75 41.75Z" fill="#E99999"/>
</svg>
