<svg width="50" height="45" viewBox="0 0 50 45" fill="none" xmlns="http://www.w3.org/2000/svg">
<path d="M24.75 18.375C24.75 11.5859 19.1641 6 12.375 6C5.5 6 0 11.5859 0 18.375C0 24.8203 4.8125 30.0625 11 30.75V36.25H6.53125C5.92969 36.25 5.5 36.7656 5.5 37.2812V37.9688C5.5 38.5703 5.92969 39 6.53125 39H11V43.4688C11 44.0703 11.4297 44.5 12.0312 44.5H12.7188C13.2344 44.5 13.75 44.0703 13.75 43.4688V39H18.2188C18.7344 39 19.25 38.5703 19.25 37.9688V37.2812C19.25 36.7656 18.7344 36.25 18.2188 36.25H13.75V30.75C19.9375 30.0625 24.75 24.8203 24.75 18.375ZM2.75 18.375C2.75 13.1328 7.04688 8.75 12.375 8.75C17.6172 8.75 22 13.0469 22 18.375C22 23.7031 17.7031 28 12.375 28C7.04688 28 2.75 23.7031 2.75 18.375ZM49.5 1.53125C49.5 1.01562 48.9844 0.5 48.4688 0.5H40.9062C40.3047 0.5 39.875 1.01562 39.875 1.53125V2.21875C39.875 2.82031 40.3047 3.25 40.9062 3.25H44.7734L39.2734 8.75C37.2109 7.03125 34.5469 6 31.625 6C28.7031 6 26.0391 7.03125 23.8906 8.66406C24.4922 9.35156 25.0078 10.125 25.5234 10.9844C27.2422 9.52344 29.3047 8.75 31.5391 8.75C36.8672 8.75 41.1641 13.0469 41.1641 18.375C41.1641 23.7031 36.8672 28 31.5391 28C29.3047 28 27.2422 27.3125 25.5234 25.8516C25.0078 26.7109 24.4922 27.3984 23.8906 28.1719C26.0391 29.8047 28.7031 30.75 31.625 30.75C38.4141 30.75 44 25.25 44 18.375C44 15.4531 42.9688 12.7891 41.25 10.7266L46.75 5.22656V9.09375C46.75 9.69531 47.1797 10.125 47.7812 10.125H48.4688C48.9844 10.125 49.5 9.69531 49.5 9.09375V1.53125Z" fill="#E99999"/>
</svg>
