<svg width="42" height="45" viewBox="0 0 42 45" fill="none" xmlns="http://www.w3.org/2000/svg">
<path d="M39.0469 7.71875L22.5469 0.84375C22.1172 0.671875 21.4297 0.585938 21 0.585938C20.4844 0.585938 19.7969 0.671875 19.3672 0.84375L2.86719 7.71875C1.32031 8.40625 0.375 9.86719 0.375 11.5C0.375 28.6016 10.1719 40.375 19.3672 44.2422C20.3984 44.6719 21.5156 44.6719 22.5469 44.2422C29.9375 41.1484 41.625 30.5781 41.625 11.5C41.625 9.86719 40.5938 8.40625 39.0469 7.71875ZM21.5156 41.6641C21.1719 41.8359 20.7422 41.8359 20.3984 41.6641C12.0625 38.3125 3.125 26.625 3.125 11.5C3.125 10.9844 3.38281 10.4688 3.89844 10.2969L20.3984 3.42188C20.7422 3.25 21.1719 3.25 21.5156 3.42188L38.0156 10.2969C38.5312 10.4688 38.875 10.9844 38.7891 11.5C38.875 26.625 29.9375 38.3125 21.5156 41.6641ZM21 35.8203V9.09375L8.71094 14.25C9.57031 24.5625 15.3281 32.7266 21 35.8203ZM18.25 30.1484C15.0703 26.7109 12.5781 21.7266 11.6328 15.9688L18.25 13.2188V30.1484Z" fill="#E99999"/>
</svg>
