<svg width="56" height="45" viewBox="0 0 56 45" fill="none" xmlns="http://www.w3.org/2000/svg">
<path d="M54.8281 18.5469L54.1406 17.3438C53.9688 17 53.5391 16.9141 53.2812 17.0859L44 22.5V21.125C44 18.8906 42.1094 17 39.875 17H27.5V22.4141C27.5 23.7891 26.5547 24.9922 25.1797 25.25C23.4609 25.5078 22 24.2188 22 22.5V14.4219C22 13.2188 22.6016 12.1016 23.5469 11.5L26.4688 9.69531C27.4141 9.09375 28.5312 8.75 29.7344 8.75H38.5859L48.8125 2.99219C49.0703 2.82031 49.2422 2.39062 49.0703 2.04688L48.3828 0.84375C48.125 0.585938 47.6953 0.414062 47.4375 0.585938L37.8984 6H29.7344C28.0156 6 26.3828 6.51562 25.0078 7.375L22.0859 9.17969C20.625 10.125 19.6797 11.6719 19.3359 13.3906L14.0078 16.5703C12.1172 17.6875 11 19.6641 11 21.8984V25.1641L0.34375 31.2656C0 31.4375 -0.171875 31.8672 0.0859375 32.125L0.773438 33.3281C0.945312 33.6719 1.375 33.8438 1.63281 33.5859L13.75 26.7969V21.8984C13.75 20.6953 14.3516 19.4922 15.3828 18.8906L19.25 16.6562V22.3281C19.25 25.1641 21.3125 27.7422 24.1484 28C27.4141 28.3438 30.25 25.7656 30.25 22.5V19.75H39.875C40.5625 19.75 41.25 20.4375 41.25 21.125V23.875C41.25 24.6484 40.5625 25.25 39.875 25.25H37.8125V28.3438C37.8125 30.0625 36.4375 31.4375 34.7188 31.4375H33.3438V32.8125C33.3438 34.7031 31.7969 36.25 29.8203 36.25H20.4531L10.4844 42.0938C10.2266 42.2656 10.0547 42.6953 10.3125 43.0391L11 44.1562C11.1719 44.5 11.6016 44.6719 11.8594 44.4141L21.2266 39H29.8203C32.8281 39 35.3203 36.9375 35.9219 34.1016C38.5859 33.5 40.5625 31.1797 40.5625 28.3438V28C41.6797 27.7422 42.625 27.0547 43.2266 26.1094L54.6562 19.4922C54.9141 19.3203 55.0859 18.8906 54.8281 18.5469Z" fill="#E99999"/>
</svg>
