<svg width="60" height="68" viewBox="0 0 60 68" fill="none" xmlns="http://www.w3.org/2000/svg">
<path d="M42.5625 8.75H40.4688V6.65625C40.4688 3.25391 37.5898 0.375 34.1875 0.375H25.8125C22.2793 0.375 19.5312 3.25391 19.5312 6.65625V8.75H17.4375C8.14648 8.75 0.6875 16.3398 0.6875 25.5V59C0.6875 63.7109 4.35156 67.375 9.0625 67.375H50.9375C55.5176 67.375 59.3125 63.7109 59.3125 59V25.5C59.3125 16.3398 51.7227 8.75 42.5625 8.75ZM23.7188 6.65625C23.7188 5.60938 24.6348 4.5625 25.8125 4.5625H34.1875C35.2344 4.5625 36.2812 5.60938 36.2812 6.65625V8.75H23.7188V6.65625ZM44.6562 63.1875H15.3438V50.625H44.6562V63.1875ZM44.6562 46.4375H15.3438V42.25C15.3438 40.0254 17.1758 38.0625 19.5312 38.0625H40.4688C42.6934 38.0625 44.6562 40.0254 44.6562 42.25V46.4375ZM55.125 59C55.125 61.3555 53.1621 63.1875 50.9375 63.1875H48.8438V42.25C48.8438 37.6699 45.0488 33.875 40.4688 33.875H19.5312C14.8203 33.875 11.1562 37.6699 11.1562 42.25V63.1875H9.0625C6.70703 63.1875 4.875 61.3555 4.875 59V25.5C4.875 18.6953 10.502 12.9375 17.4375 12.9375H42.5625C49.3672 12.9375 55.125 18.6953 55.125 25.5V59ZM41.5156 21.3125H18.4844C17.8301 21.3125 17.4375 21.8359 17.4375 22.3594V24.4531C17.4375 25.1074 17.8301 25.5 18.4844 25.5H41.5156C42.0391 25.5 42.5625 25.1074 42.5625 24.4531V22.3594C42.5625 21.8359 42.0391 21.3125 41.5156 21.3125Z" fill="#D33334"/>
</svg>
