<svg width="84" height="60" viewBox="0 0 84 60" fill="none" xmlns="http://www.w3.org/2000/svg">
<path d="M52.4688 0.5625H31.5312C14.127 0.5625 0.125 9.98438 0.125 21.5C0.125 26.2109 4.05078 29.875 8.5 29.875V55C8.5 57.3555 10.332 59.1875 12.6875 59.1875H71.3125C73.5371 59.1875 75.5 57.3555 75.5 55V29.875C79.8184 29.875 83.875 26.2109 83.875 21.5C83.875 9.98438 69.7422 0.5625 52.4688 0.5625ZM50.375 55H12.6875V25.6875H8.5C6.40625 25.6875 4.3125 23.8555 4.3125 21.5C4.3125 12.4707 16.7441 4.75 31.5312 4.75C46.1875 4.75 58.75 12.4707 58.75 21.5C58.75 23.8555 57.0488 25.6875 55.0859 25.6875H50.375V55ZM71.3125 55H54.5625V29.875H71.3125V55ZM76.0234 25.6875H61.7598C62.4141 24.6406 62.8066 22.8086 62.9375 21.5C62.9375 14.6953 57.9648 8.67578 50.2441 4.75H52.4688C67.125 4.75 79.6875 12.4707 79.6875 21.5C79.6875 23.8555 77.9863 25.6875 76.0234 25.6875Z" fill="#D33334"/>
</svg>
