<svg width="59" height="68" viewBox="0 0 59 68" fill="none" xmlns="http://www.w3.org/2000/svg">
<path d="M12.75 12.9375C14.9746 12.9375 16.9375 11.2363 16.9375 7.70312C16.9375 4.30078 14.3203 0.375 12.75 0.375C12.75 5.74023 8.5625 4.69336 8.5625 8.75C8.5625 11.1055 10.3945 12.9375 12.75 12.9375ZM29.5 12.9375C31.7246 12.9375 33.6875 11.2363 33.6875 7.70312C33.6875 4.30078 31.0703 0.375 29.5 0.375C29.5 5.74023 25.3125 4.69336 25.3125 8.75C25.3125 11.1055 27.1445 12.9375 29.5 12.9375ZM46.25 12.9375C48.4746 12.9375 50.4375 11.2363 50.4375 7.70312C50.4375 4.30078 47.8203 0.375 46.25 0.375C46.25 5.74023 42.0625 4.69336 42.0625 8.75C42.0625 11.1055 43.8945 12.9375 46.25 12.9375ZM52.5312 33.875H48.3438V15.0312H44.1562V33.875H31.5938V15.0312H27.4062V33.875H14.8438V15.0312H10.6562V33.875H6.46875C2.93555 33.875 0.1875 36.7539 0.1875 40.1562V67.375H58.8125V40.1562C58.8125 36.7539 55.9336 33.875 52.5312 33.875ZM54.625 63.1875H4.375V53.7656C6.46875 52.5879 7.38477 50.625 9.87109 50.625C13.5352 50.625 14.0586 54.8125 19.6855 54.8125C25.3125 54.8125 25.8359 50.625 29.5 50.625C33.1641 50.625 33.5566 54.8125 39.1836 54.8125C44.9414 54.8125 45.334 50.625 48.998 50.625C51.3535 50.625 52.4004 52.5879 54.625 53.7656V63.1875ZM54.625 48.5312C53.3164 47.4844 51.7461 46.4375 48.998 46.4375C43.3711 46.4375 42.8477 50.625 39.1836 50.625C35.6504 50.625 35.127 46.4375 29.5 46.4375C23.873 46.4375 23.2188 50.625 19.6855 50.625C16.0215 50.625 15.6289 46.4375 9.87109 46.4375C7.12305 46.4375 5.55273 47.4844 4.375 48.5312V40.1562C4.375 39.1094 5.29102 38.0625 6.46875 38.0625H52.5312C53.5781 38.0625 54.625 39.1094 54.625 40.1562V48.5312Z" fill="#D33334"/>
</svg>
