<svg width="84" height="60" viewBox="0 0 84 60" fill="none" xmlns="http://www.w3.org/2000/svg">
<path d="M79.6875 0.5625H4.3125C1.95703 0.5625 0.125 2.52539 0.125 4.75V55C0.125 57.3555 1.95703 59.1875 4.3125 59.1875H79.6875C81.9121 59.1875 83.875 57.3555 83.875 55V4.75C83.875 2.52539 81.9121 0.5625 79.6875 0.5625ZM79.6875 55H4.3125V4.75H79.6875V55ZM38.8594 38.25H49.3281C49.8516 38.25 50.375 37.8574 50.375 37.2031V35.1094C50.375 34.5859 49.8516 34.0625 49.3281 34.0625H38.8594C38.2051 34.0625 37.8125 34.5859 37.8125 35.1094V37.2031C37.8125 37.8574 38.2051 38.25 38.8594 38.25ZM70.2656 34.0625H59.7969C59.1426 34.0625 58.75 34.5859 58.75 35.1094V37.2031C58.75 37.8574 59.1426 38.25 59.7969 38.25H70.2656C70.7891 38.25 71.3125 37.8574 71.3125 37.2031V35.1094C71.3125 34.5859 70.7891 34.0625 70.2656 34.0625ZM38.8594 25.6875H70.2656C70.7891 25.6875 71.3125 25.2949 71.3125 24.6406V22.5469C71.3125 22.0234 70.7891 21.5 70.2656 21.5H38.8594C38.2051 21.5 37.8125 22.0234 37.8125 22.5469V24.6406C37.8125 25.2949 38.2051 25.6875 38.8594 25.6875ZM17.6602 30.1367L23.1562 31.707C23.8105 31.8379 24.2031 32.2305 24.2031 32.7539C24.2031 33.4082 23.5488 33.9316 22.7637 33.9316H19.3613C18.8379 33.9316 18.3145 33.8008 17.791 33.5391C17.3984 33.2773 16.875 33.2773 16.6133 33.6699L15.043 35.3711C14.6504 35.7637 14.6504 36.418 15.1738 36.8105C16.2207 37.4648 17.5293 37.9883 18.9688 37.9883V39.2969C18.9688 39.9512 19.3613 40.3438 20.0156 40.3438H22.1094C22.6328 40.3438 23.1562 39.9512 23.1562 39.2969V37.9883C26.0352 37.8574 28.3906 35.6328 28.3906 32.7539C28.3906 30.3984 26.6895 28.3047 24.334 27.6504L18.8379 26.0801C18.1836 25.9492 17.9219 25.5566 17.9219 25.0332C17.9219 24.3789 18.4453 23.8555 19.2305 23.8555H22.6328C23.1562 23.8555 23.6797 23.9863 24.2031 24.248C24.5957 24.5098 25.1191 24.5098 25.3809 24.1172L26.9512 22.416C27.3438 22.0234 27.3438 21.3691 26.8203 20.9766C25.7734 20.3223 24.4648 19.7988 23.1562 19.7988V18.3594C23.1562 17.8359 22.6328 17.3125 22.1094 17.3125H20.0156C19.3613 17.3125 18.9688 17.8359 18.9688 18.3594V19.7988C15.959 19.9297 13.7344 22.1543 13.7344 25.0332C13.7344 27.3887 15.3047 29.4824 17.6602 30.1367Z" fill="#D33334"/>
</svg>
