<svg width="90" height="90" viewBox="0 0 90 90" fill="none" xmlns="http://www.w3.org/2000/svg">
<path d="M86.3711 28.8066C86.0234 28.459 82.5469 25.6777 78.375 22.2012V16.8125C78.375 13.8574 75.7676 11.25 72.8125 11.25H64.6426C63.9473 10.7285 63.252 10.207 62.9043 9.85938C59.0801 6.9043 52.4746 0.125 45 0.125C37.3516 0.125 30.9199 6.73047 26.9219 9.85938C26.5742 10.207 25.8789 10.7285 25.1836 11.25H17.1875C14.0586 11.25 11.625 13.8574 11.625 16.8125V22.2012C7.2793 25.6777 3.80273 28.459 3.45508 28.8066C1.7168 30.1973 0.5 32.9785 0.5 35.2383V80.7812C0.5 85.4746 4.15039 89.125 8.84375 89.125H81.1562C85.6758 89.125 89.5 85.4746 89.5 80.7812V35.2383C89.5 32.8047 88.2832 30.3711 86.3711 28.8066ZM45 5.6875C48.6504 5.6875 52.6484 8.64258 55.9512 11.25H33.875C37.1777 8.64258 41.1758 5.6875 45 5.6875ZM17.1875 16.8125H72.8125V47.0586C67.0762 51.5781 61.3398 56.0977 57.6895 59.0527C54.7344 61.4863 48.998 67.0488 45 66.875C40.8281 67.0488 35.0918 61.4863 32.1367 59.0527C28.4863 56.0977 22.75 51.5781 17.1875 47.0586V16.8125ZM6.0625 35.2383C6.0625 34.3691 6.41016 33.6738 6.93164 33.1523C7.2793 32.9785 9.01758 31.4141 11.625 29.502V42.5391C9.53906 40.9746 7.62695 39.4102 6.0625 38.0195V35.2383ZM83.9375 80.7812C83.9375 82.3457 82.5469 83.5625 81.1562 83.5625H8.84375C7.2793 83.5625 6.0625 82.3457 6.0625 80.7812V45.1465C13.3633 51.2305 23.2715 59.0527 28.6602 63.3984C32.3105 66.3535 38.5684 72.6113 45 72.4375C51.2578 72.6113 57.5156 66.3535 61.166 63.3984C66.5547 59.0527 76.4629 51.2305 83.9375 45.1465V80.7812ZM83.9375 38.0195C82.1992 39.4102 80.2871 40.9746 78.375 42.5391V29.502C80.8086 31.4141 82.5469 32.9785 82.8945 33.1523C83.416 33.6738 83.9375 34.3691 83.9375 35.2383V38.0195ZM40.1328 42.0176L47.9551 44.4512C48.998 44.625 49.5195 45.4941 49.5195 46.5371C49.5195 47.9277 48.6504 48.7969 47.4336 48.7969H42.5664C41.8711 48.7969 41.002 48.623 40.3066 48.2754C39.7852 47.9277 39.0898 47.9277 38.5684 48.4492L36.6562 50.3613C35.9609 50.8828 35.9609 51.9258 36.6562 52.4473C38.2207 53.6641 40.1328 54.3594 42.2188 54.3594V57.1406C42.2188 58.0098 42.7402 58.5312 43.6094 58.5312H46.3906C47.0859 58.5312 47.7812 58.0098 47.7812 57.1406V54.3594C51.7793 54.3594 55.082 50.8828 55.082 46.5371C55.082 43.0605 52.8223 39.9316 49.6934 39.0625L41.8711 36.6289C40.8281 36.4551 40.3066 35.5859 40.3066 34.543C40.3066 33.1523 41.1758 32.1094 42.3926 32.1094H47.2598C47.9551 32.1094 48.8242 32.457 49.5195 32.8047C50.041 33.1523 50.7363 33.1523 51.2578 32.6309L53.1699 30.7188C53.8652 30.1973 53.8652 29.1543 53.1699 28.6328C51.6055 27.416 49.6934 26.7207 47.7812 26.7207V23.7656C47.7812 23.0703 47.0859 22.375 46.3906 22.375H43.6094C42.7402 22.375 42.2188 23.0703 42.2188 23.7656V26.7207C38.0469 26.7207 34.7441 30.1973 34.7441 34.543C34.7441 38.0195 37.0039 40.9746 40.1328 42.0176Z" fill="#D33334"/>
</svg>
