<svg width="60" height="68" viewBox="0 0 60 68" fill="none" xmlns="http://www.w3.org/2000/svg">
<path d="M41.6465 46.4375C37.8516 46.4375 36.1504 48.5312 30 48.5312C23.7188 48.5312 22.0176 46.4375 18.2227 46.4375C8.53906 46.4375 0.6875 54.4199 0.6875 64.1035C0.6875 65.9355 2.12695 67.375 3.95898 67.375H55.9102C57.7422 67.375 59.3125 65.9355 59.3125 64.1035C59.3125 54.4199 51.3301 46.4375 41.6465 46.4375ZM4.875 63.1875C5.26758 56.3828 11.2871 50.7559 18.2227 50.625C20.8398 50.625 23.3262 52.7188 30 52.7188C36.6738 52.7188 39.0293 50.625 41.6465 50.625C48.582 50.7559 54.6016 56.3828 54.9941 63.1875H4.875ZM12.2031 21.3125H13.7734C13.5117 22.4902 13.25 24.3223 13.25 25.5C13.25 34.791 20.709 42.25 30 42.25C39.1602 42.25 46.75 34.791 46.75 25.5C46.6191 24.3223 46.3574 22.4902 46.0957 21.3125H47.7969C48.3203 21.3125 48.8438 20.9199 48.8438 20.2656V18.1719C48.8438 17.6484 48.3203 17.125 47.7969 17.125H46.75C46.75 10.4512 42.1699 4.82422 35.8887 3.12305C35.3652 1.68359 33.6641 0.505859 32.0938 0.375H27.9062C26.2051 0.505859 24.5039 1.68359 23.9805 3.12305C17.8301 4.82422 13.25 10.4512 13.25 17.125H12.2031C11.5488 17.125 11.1562 17.6484 11.1562 18.1719V20.2656C11.1562 20.9199 11.5488 21.3125 12.2031 21.3125ZM36.2812 7.57227C39.6836 9.14258 42.4316 13.4609 42.5625 17.125H36.2812V7.57227ZM27.9062 4.5625H32.0938V17.125H27.9062V4.5625ZM17.4375 17.125C17.4375 13.4609 20.1855 9.14258 23.7188 7.57227V17.125H17.4375ZM18.2227 21.3125H41.7773C42.1699 22.4902 42.4316 24.3223 42.5625 25.5C42.5625 32.4355 36.8047 38.0625 30 38.0625C23.0645 38.0625 17.4375 32.4355 17.4375 25.5C17.4375 24.3223 17.6992 22.4902 18.2227 21.3125Z" fill="#D33334"/>
</svg>
