<svg width="52" height="68" viewBox="0 0 52 68" fill="none" xmlns="http://www.w3.org/2000/svg">
<path d="M46.6758 22.3594C46.8066 22.0977 46.9375 21.7051 46.9375 21.3125V10.8438C46.9375 7.44141 44.0586 4.5625 40.6562 4.5625H38.5625C37.6465 4.5625 36.8613 4.82422 36.207 5.08594C35.4219 2.46875 33.0664 0.375 30.1875 0.375H28.0938C25.084 0.375 22.7285 2.46875 21.9434 5.08594C21.2891 4.82422 20.5039 4.5625 19.7188 4.5625H17.625C14.6152 4.5625 12.2598 6.65625 11.4746 9.27344C10.8203 9.01172 10.0352 8.75 9.25 8.75H7.15625C3.62305 8.75 0.875 11.6289 0.875 15.0312V39.502C0.875 44.6055 2.83789 49.3164 6.37109 52.8496L9.25 55.7285V66.3281C9.25 66.9824 9.64258 67.375 10.2969 67.375H12.3906C12.9141 67.375 13.4375 66.9824 13.4375 66.3281V54.0273L9.25 49.9707C6.89453 47.6152 5.0625 42.9043 5.0625 39.502V33.6133C5.7168 33.7441 6.37109 33.875 7.15625 33.875H9.25C10.8203 33.875 12.2598 33.3516 13.4375 32.3047C14.4844 33.3516 15.9238 33.875 17.625 33.875H19.7188C21.4199 33.875 22.9902 33.2207 24.0371 32.1738C24.168 32.1738 25.3457 34.0059 28.0938 35.1836C25.4766 37.2773 23.6445 39.8945 20.6348 44.4746C20.5039 44.6055 20.373 44.8672 20.373 44.998C20.373 45.3906 20.6348 45.7832 20.8965 45.9141L22.5977 47.0918C22.7285 47.2227 22.9902 47.2227 23.252 47.2227C23.5137 47.2227 23.9062 47.0918 24.0371 46.8301L24.9531 45.5215C29.0098 39.2402 31.627 36.3613 37.5156 36.0996C38.0391 35.9688 38.4316 35.5762 38.4316 35.0527V32.8281C38.4316 32.3047 38.0391 31.7812 37.3848 31.7812H32.1504C28.748 31.7812 25.8691 29.0332 25.8691 25.6309V25.5C25.8691 24.4531 26.916 23.4062 27.9629 23.4062H38.5625C43.1426 23.4062 46.9375 27.2012 46.9375 31.7812V43.4277C46.9375 46.6992 45.498 49.9707 43.1426 52.3262L38.5625 56.9062V66.3281C38.5625 66.9824 38.9551 67.375 39.6094 67.375H41.7031C42.2266 67.375 42.75 66.9824 42.75 66.3281V58.7383L46.1523 55.2051C49.293 52.0645 51.125 47.877 51.125 43.4277V31.7812C51.125 28.1172 49.293 24.7148 46.6758 22.3594ZM11.3438 27.5938C11.3438 28.7715 10.2969 29.6875 9.25 29.6875H7.15625C5.97852 29.6875 5.0625 28.7715 5.0625 27.5938V15.0312C5.0625 13.9844 5.97852 12.9375 7.15625 12.9375H9.25C10.2969 12.9375 11.3438 13.9844 11.3438 15.0312V27.5938ZM21.8125 27.5938C21.8125 28.7715 20.7656 29.6875 19.7188 29.6875H17.625C16.4473 29.6875 15.5312 28.7715 15.5312 27.5938V10.8438C15.5312 9.79688 16.4473 8.75 17.625 8.75H19.7188C20.7656 8.75 21.8125 9.79688 21.8125 10.8438V27.5938ZM32.2812 19.2188H27.9629C27.3086 19.2188 26.6543 19.4805 26 19.6113V6.65625C26 5.60938 26.916 4.5625 28.0938 4.5625H30.1875C31.2344 4.5625 32.2812 5.60938 32.2812 6.65625V19.2188ZM42.75 20.0039C41.3105 19.6113 40.002 19.2188 38.5625 19.2188H36.4688V10.8438C36.4688 9.79688 37.3848 8.75 38.5625 8.75H40.6562C41.7031 8.75 42.75 9.79688 42.75 10.8438V20.0039Z" fill="#D33334"/>
</svg>
