<svg width="86" height="68" viewBox="0 0 86 68" fill="none" xmlns="http://www.w3.org/2000/svg">
<path d="M84.6133 27.8555L83.5664 26.0234C83.3047 25.5 82.6504 25.3691 82.2578 25.6309L68.125 33.875V31.7812C68.125 28.3789 65.2461 25.5 61.8438 25.5H43V33.7441C43 35.8379 41.5605 37.6699 39.4668 38.0625C36.8496 38.4551 34.625 36.4922 34.625 33.875V21.5742C34.625 19.7422 35.541 18.041 36.9805 17.125L41.4297 14.377C42.8691 13.4609 44.5703 12.9375 46.4023 12.9375H59.8809L75.4531 4.16992C75.8457 3.9082 76.1074 3.25391 75.8457 2.73047L74.7988 0.898438C74.4062 0.505859 73.752 0.244141 73.3594 0.505859L58.834 8.75H46.4023C43.7852 8.75 41.2988 9.53516 39.2051 10.8438L34.7559 13.5918C32.5312 15.0312 31.0918 17.3867 30.5684 20.0039L22.4551 24.8457C19.5762 26.5469 17.875 29.5566 17.875 32.959V37.9316L1.64844 47.2227C1.125 47.4844 0.863281 48.1387 1.25586 48.5312L2.30273 50.3633C2.56445 50.8867 3.21875 51.1484 3.61133 50.7559L22.0625 40.418V32.959C22.0625 31.127 22.9785 29.2949 24.5488 28.3789L30.4375 24.9766V33.6133C30.4375 37.9316 33.5781 41.8574 37.8965 42.25C42.8691 42.7734 47.1875 38.8477 47.1875 33.875V29.6875H61.8438C62.8906 29.6875 63.9375 30.7344 63.9375 31.7812V35.9688C63.9375 37.1465 62.8906 38.0625 61.8438 38.0625H58.7031V42.7734C58.7031 45.3906 56.6094 47.4844 53.9922 47.4844H51.8984V49.5781C51.8984 52.457 49.543 54.8125 46.5332 54.8125H32.2695L17.0898 63.7109C16.6973 63.9727 16.4355 64.627 16.8281 65.1504L17.875 66.8516C18.1367 67.375 18.791 67.6367 19.1836 67.2441L33.4473 59H46.5332C51.1133 59 54.9082 55.8594 55.8242 51.541C59.8809 50.625 62.8906 47.0918 62.8906 42.7734V42.25C64.5918 41.8574 66.0312 40.8105 66.9473 39.3711L84.3516 29.2949C84.7441 29.0332 85.0059 28.3789 84.6133 27.8555Z" fill="#D33334"/>
</svg>
