<svg width="68" height="90" viewBox="0 0 68 90" fill="none" xmlns="http://www.w3.org/2000/svg">
<path d="M34 0.125C15.5742 0.125 0.625 15.248 0.625 33.5C0.625 46.8848 4.9707 50.8828 30.5234 87.5605C31.3926 88.6035 32.6094 89.125 34 89.125C35.2168 89.125 36.4336 88.6035 37.3027 87.5605C62.8555 50.8828 67.375 46.8848 67.375 33.5C67.375 15.248 52.252 0.125 34 0.125ZM34 82.5195C30.5234 77.6523 27.3945 73.4805 24.7871 69.6562C7.92578 45.668 6.1875 42.8867 6.1875 33.5C6.1875 18.2031 18.5293 5.6875 34 5.6875C49.2969 5.6875 61.8125 18.2031 61.8125 33.5C61.8125 42.8867 59.9004 45.668 43.0391 69.6562C40.2578 73.4805 37.3027 77.8262 34 82.5195ZM49.2969 30.7188H36.7812V18.2031C36.7812 17.5078 36.0859 16.8125 35.3906 16.8125H32.6094C31.7402 16.8125 31.2188 17.5078 31.2188 18.2031V30.7188H18.7031C17.834 30.7188 17.3125 31.4141 17.3125 32.1094V34.8906C17.3125 35.7598 17.834 36.2812 18.7031 36.2812H31.2188V48.7969C31.2188 49.666 31.7402 50.1875 32.6094 50.1875H35.3906C36.0859 50.1875 36.7812 49.666 36.7812 48.7969V36.2812H49.2969C49.9922 36.2812 50.6875 35.7598 50.6875 34.8906V32.1094C50.6875 31.4141 49.9922 30.7188 49.2969 30.7188Z" fill="#D33334"/>
</svg>
