<svg width="52" height="68" viewBox="0 0 52 68" fill="none" xmlns="http://www.w3.org/2000/svg">
<path d="M14.4844 42.25H21.8125V49.5781C21.8125 50.2324 22.2051 50.625 22.8594 50.625H29.1406C29.6641 50.625 30.1875 50.2324 30.1875 49.5781V42.25H37.5156C38.0391 42.25 38.5625 41.8574 38.5625 41.2031V34.9219C38.5625 34.3984 38.0391 33.875 37.5156 33.875H30.1875V26.5469C30.1875 26.0234 29.6641 25.5 29.1406 25.5H22.8594C22.2051 25.5 21.8125 26.0234 21.8125 26.5469V33.875H14.4844C13.8301 33.875 13.4375 34.3984 13.4375 34.9219V41.2031C13.4375 41.8574 13.8301 42.25 14.4844 42.25ZM47.9844 0.375H4.01562C2.18359 0.375 0.875 1.81445 0.875 3.51562V13.9844C0.875 15.8164 2.18359 17.125 4.01562 17.125H5.0625V63.1875C5.0625 65.543 6.89453 67.375 9.25 67.375H42.75C44.9746 67.375 46.9375 65.543 46.9375 63.1875V17.125H47.9844C49.6855 17.125 51.125 15.8164 51.125 13.9844V3.51562C51.125 1.81445 49.6855 0.375 47.9844 0.375ZM42.75 63.1875H9.25V17.125H42.75V63.1875ZM46.9375 12.9375H5.0625V4.5625H46.9375V12.9375Z" fill="#D33334"/>
</svg>
