<svg width="68" height="60" viewBox="0 0 68 60" fill="none" xmlns="http://www.w3.org/2000/svg">
<path d="M61.2188 8.9375H46.5625V3.70312C46.5625 2.00195 45.123 0.5625 43.4219 0.5625H24.5781C22.7461 0.5625 21.4375 2.00195 21.4375 3.70312V8.9375H6.78125C3.24805 8.9375 0.5 11.8164 0.5 15.2188V52.9062C0.5 56.4395 3.24805 59.1875 6.78125 59.1875H61.2188C64.6211 59.1875 67.5 56.4395 67.5 52.9062V15.2188C67.5 11.8164 64.6211 8.9375 61.2188 8.9375ZM25.625 4.75H42.375V8.9375H25.625V4.75ZM50.75 13.125V55H17.25V13.125H50.75ZM4.6875 52.9062V15.2188C4.6875 14.1719 5.60352 13.125 6.78125 13.125H13.0625V55H6.78125C5.60352 55 4.6875 54.084 4.6875 52.9062ZM63.3125 52.9062C63.3125 54.084 62.2656 55 61.2188 55H54.9375V13.125H61.2188C62.2656 13.125 63.3125 14.1719 63.3125 15.2188V52.9062ZM46.5625 31.9688C46.5625 31.1836 45.7773 30.3984 44.9922 30.3984H37.6641V23.0703C37.6641 22.2852 36.8789 21.5 36.0938 21.5H31.9062C30.9902 21.5 30.3359 22.2852 30.3359 23.0703V30.3984H23.0078C22.0918 30.3984 21.4375 31.1836 21.4375 31.9688V36.1562C21.4375 37.0723 22.0918 37.7266 23.0078 37.7266H30.3359V45.0547C30.3359 45.9707 30.9902 46.625 31.9062 46.625H36.0938C36.8789 46.625 37.6641 45.9707 37.6641 45.0547V37.7266H44.9922C45.7773 37.7266 46.5625 37.0723 46.5625 36.1562V31.9688Z" fill="#D33334"/>
</svg>
