<svg width="60" height="68" viewBox="0 0 60 68" fill="none" xmlns="http://www.w3.org/2000/svg">
<path d="M42.4316 42.25L30 54.8125L17.4375 42.25C8.14648 42.7734 0.6875 50.3633 0.6875 59.7852C0.6875 63.9727 4.08984 67.375 8.27734 67.375H51.5918C55.7793 67.375 59.3125 63.9727 59.3125 59.7852C59.3125 50.3633 51.7227 42.7734 42.4316 42.25ZM27.9062 63.1875H8.27734C6.31445 63.1875 4.875 61.748 4.875 59.7852C4.875 53.6348 9.7168 47.7461 15.8672 46.6992L27.9062 58.6074V63.1875ZM51.5918 63.1875H32.0938V58.6074L44.002 46.6992C50.1523 47.7461 54.9941 53.6348 55.125 59.7852C54.9941 61.748 53.5547 63.1875 51.5918 63.1875ZM8.14648 38.0625H19.4004C21.7559 40.418 26.5977 42.25 30 42.25C33.2715 42.25 38.1133 40.418 40.5996 38.0625H51.7227C52.9004 38.0625 53.8164 37.1465 53.8164 35.9688C53.8164 35.707 53.6855 35.3145 53.5547 35.0527C51.5918 31.127 49.498 26.9395 48.0586 22.6211C47.0117 19.6113 46.75 16.3398 46.75 13.1992V9.66602C46.6191 7.96484 45.4414 6.26367 44.002 5.74023L30 0.375L15.8672 5.74023C14.4277 6.26367 13.25 7.96484 13.25 9.66602V13.1992C13.25 16.3398 12.8574 19.6113 11.8105 22.6211C10.3711 26.9395 8.27734 31.127 6.31445 35.0527C6.18359 35.3145 6.05273 35.707 6.05273 35.9688C6.05273 37.1465 6.96875 38.0625 8.14648 38.0625ZM30 38.0625C23.5879 38.0625 18.4844 32.959 18.4844 26.5469C18.4844 25.7617 18.6152 24.3223 18.877 23.4062H40.9922C41.2539 24.3223 41.3848 25.7617 41.5156 26.5469C41.3848 32.959 36.2812 38.0625 30 38.0625ZM45.5723 27.7246C46.3574 29.8184 47.2734 31.9121 48.3203 33.875H43.7402C44.6562 32.3047 45.4414 29.5566 45.5723 27.7246ZM17.4375 9.66602L30 4.95508L42.5625 9.66602V19.2188H17.4375V9.66602ZM14.2969 27.7246C14.4277 29.5566 15.2129 32.3047 16.1289 33.875H11.5488C12.5957 31.9121 13.5117 29.8184 14.2969 27.7246ZM34.7109 11.2363H31.7012V8.22656C31.7012 7.96484 31.4395 7.70312 31.3086 7.70312H28.6914C28.4297 7.70312 28.168 7.96484 28.168 8.22656V11.2363H25.1582C24.8965 11.2363 24.7656 11.498 24.7656 11.6289V14.2461C24.7656 14.5078 24.8965 14.7695 25.1582 14.7695H28.168V17.7793C28.168 18.041 28.4297 18.1719 28.6914 18.1719H31.3086C31.4395 18.1719 31.7012 18.041 31.7012 17.7793V14.7695H34.7109C34.9727 14.7695 35.2344 14.5078 35.2344 14.2461V11.6289C35.2344 11.498 34.9727 11.2363 34.7109 11.2363Z" fill="#D33334"/>
</svg>
