<svg width="59" height="68" viewBox="0 0 59 68" fill="none" xmlns="http://www.w3.org/2000/svg">
<path d="M19.6855 48.6621L18.6387 54.8125C18.5078 56.1211 19.0312 57.5605 20.209 58.3457C20.8633 58.8691 21.5176 59.1309 22.3027 59.1309C22.8262 59.1309 23.4805 58.8691 24.0039 58.6074L29.5 55.7285L34.8652 58.6074C36.1738 59.2617 37.6133 59.1309 38.791 58.3457C39.8379 57.5605 40.4922 56.1211 40.2305 54.8125L39.1836 48.6621L43.502 44.4746C44.5488 43.4277 44.9414 41.9883 44.418 40.6797C44.0254 39.3711 42.8477 38.4551 41.5391 38.1934L35.3887 37.2773L32.7715 31.7812C32.1172 30.4727 30.8086 29.6875 29.5 29.6875C28.0605 29.6875 26.752 30.4727 26.2285 31.7812L23.4805 37.2773L17.3301 38.1934C16.0215 38.3242 14.8438 39.3711 14.4512 40.6797C14.0586 41.9883 14.3203 43.4277 15.3672 44.4746L19.6855 48.6621ZM26.2285 41.0723L29.5 34.5293L32.6406 41.0723L39.8379 42.1191L34.6035 47.2227L35.9121 54.4199L29.5 51.0176L22.957 54.4199L24.2656 47.2227L19.0312 42.1191L26.2285 41.0723ZM52.5312 8.75H46.25V1.42188C46.25 0.898438 45.7266 0.375 45.2031 0.375H43.1094C42.4551 0.375 42.0625 0.898438 42.0625 1.42188V8.75H16.9375V1.42188C16.9375 0.898438 16.4141 0.375 15.8906 0.375H13.7969C13.1426 0.375 12.75 0.898438 12.75 1.42188V8.75H6.46875C2.93555 8.75 0.1875 11.6289 0.1875 15.0312V61.0938C0.1875 64.627 2.93555 67.375 6.46875 67.375H52.5312C55.9336 67.375 58.8125 64.627 58.8125 61.0938V15.0312C58.8125 11.6289 55.9336 8.75 52.5312 8.75ZM54.625 61.0938C54.625 62.2715 53.5781 63.1875 52.5312 63.1875H6.46875C5.29102 63.1875 4.375 62.2715 4.375 61.0938V25.5H54.625V61.0938ZM54.625 21.3125H4.375V15.0312C4.375 13.9844 5.29102 12.9375 6.46875 12.9375H52.5312C53.5781 12.9375 54.625 13.9844 54.625 15.0312V21.3125Z" fill="#D33334"/>
</svg>
