<svg width="59" height="68" viewBox="0 0 59 68" fill="none" xmlns="http://www.w3.org/2000/svg">
<path d="M52.0078 28.6406H50.0449L48.8672 25.1074C47.8203 21.9668 45.7266 19.3496 42.9785 17.5176C45.5957 15.8164 47.2969 13.0684 47.2969 9.79688C47.2969 4.69336 42.9785 0.375 37.875 0.375C32.6406 0.375 28.4531 4.69336 28.4531 9.79688C28.4531 10.9746 28.584 12.0215 28.9766 12.9375C27.7988 12.6758 26.6211 12.5449 25.5742 12.5449C22.8262 12.5449 20.209 13.3301 17.8535 14.6387L11.834 17.7793C8.5625 19.7422 7.51562 23.9297 9.47852 27.0703C10.6562 29.1641 12.8809 30.4727 15.3672 30.4727C16.5449 30.4727 17.5918 30.0801 18.6387 29.5566L21.125 28.248L13.4043 45.3906H6.99219C3.19727 45.3906 0.1875 48.5312 0.1875 52.1953C0.1875 55.9902 3.19727 59 6.99219 59H15.1055C19.5547 59 23.4805 56.5137 25.3125 52.457L27.7988 47.2227L33.5566 49.709L30.9395 58.7383C29.8926 62.4023 31.9863 66.1973 35.6504 67.1133C36.3047 67.375 36.8281 67.375 37.4824 67.375C40.4922 67.375 43.2402 65.4121 44.0254 62.5332L47.166 51.2793C48.2129 48.1387 47.4277 44.6055 45.5957 41.9883C46.5117 42.25 47.2969 42.25 48.2129 42.25H52.0078C55.6719 42.25 58.8125 39.2402 58.8125 35.4453C58.8125 31.7812 55.6719 28.6406 52.0078 28.6406ZM37.875 4.5625C40.7539 4.5625 43.1094 6.91797 43.1094 9.79688C43.1094 12.8066 40.7539 15.0312 37.875 15.0312C34.8652 15.0312 32.6406 12.8066 32.6406 9.79688C32.6406 6.91797 34.8652 4.5625 37.875 4.5625ZM21.3867 50.7559C20.4707 52.9805 17.5918 54.8125 15.1055 54.8125H6.99219C5.42188 54.8125 4.375 53.7656 4.375 52.1953C4.375 50.7559 5.42188 49.5781 6.99219 49.5781H15.1055C15.7598 49.5781 16.4141 49.3164 16.5449 48.6621L20.0781 41.2031C20.9941 42.9043 22.3027 44.3438 24.0039 45.3906L21.3867 50.7559ZM52.0078 38.0625H48.2129C45.4648 38.0625 42.5859 36.0996 41.6699 33.4824L39.9688 28.1172C39.5762 27.0703 38.791 26.1543 38.0059 25.3691L32.5098 38.9785L39.4453 42.1191C42.4551 43.4277 44.1562 46.9609 43.2402 50.2324L39.9688 61.3555C39.707 62.5332 38.6602 63.1875 37.4824 63.1875C37.2207 63.1875 36.959 63.1875 36.6973 63.1875C35.3887 62.7949 34.6035 61.3555 34.9961 59.916L38.1367 48.793C38.3984 48.0078 38.0059 47.2227 37.3516 46.8301C37.3516 46.8301 26.0977 41.7266 25.7051 41.4648C23.3496 39.7637 22.3027 36.7539 23.2188 33.875L28.1914 22.4902C28.1914 22.4902 25.9668 21.9668 25.5742 21.9668C24.5273 21.9668 23.4805 22.2285 22.5645 22.752L16.6758 25.8926C16.2832 26.0234 15.7598 26.2852 15.3672 26.2852C14.4512 26.2852 13.5352 25.7617 13.0117 24.9766C12.3574 23.668 12.75 22.0977 13.9277 21.4434L19.8164 18.3027C21.6484 17.2559 23.6113 16.7324 25.5742 16.7324C26.3594 16.7324 27.2754 16.8633 28.1914 17.125L37.0898 19.3496C40.7539 20.2656 43.6328 22.8828 44.9414 26.416L46.6426 31.7812C46.9043 32.4355 47.4277 32.8281 48.2129 32.8281H52.0078C53.4473 32.8281 54.625 34.0059 54.625 35.4453C54.625 37.0156 53.4473 38.0625 52.0078 38.0625Z" fill="#D33334"/>
</svg>
