<svg width="65" height="66" viewBox="0 0 65 66" fill="none" xmlns="http://www.w3.org/2000/svg">
<path d="M32.5 0.421875C14.5723 0.421875 0.046875 14.9473 0.046875 32.875C0.046875 50.8027 14.5723 65.3281 32.5 65.3281C50.4277 65.3281 64.9531 50.8027 64.9531 32.875C64.9531 14.9473 50.4277 0.421875 32.5 0.421875ZM52.3906 52.8965C49.7734 55.5137 46.7637 57.6074 43.4922 58.916C39.959 60.4863 36.2949 61.1406 32.3691 61.1406C28.5742 61.1406 24.9102 60.4863 21.377 58.916C18.1055 57.6074 15.0957 55.5137 12.4785 52.8965C9.86133 50.2793 7.76758 47.2695 6.32812 43.8672C4.88867 40.4648 4.10352 36.8008 4.10352 32.875C4.10352 29.0801 4.88867 25.416 6.32812 21.8828C7.76758 18.6113 9.86133 15.4707 12.4785 12.9844C14.9648 10.3672 18.1055 8.27344 21.377 6.83398C24.9102 5.39453 28.5742 4.60938 32.3691 4.60938C36.2949 4.60938 39.959 5.39453 43.4922 6.83398C46.7637 8.27344 49.7734 10.3672 52.3906 12.9844C55.0078 15.4707 57.1016 18.6113 58.541 21.8828C59.9805 25.416 60.7656 29.0801 60.7656 32.875C60.7656 36.8008 59.9805 40.4648 58.541 43.8672C57.1016 47.2695 55.0078 50.2793 52.3906 52.8965ZM22.0312 30.7812C24.2559 30.7812 26.2188 28.9492 26.2188 26.5938C26.2188 24.3691 24.2559 22.4062 22.0312 22.4062C19.6758 22.4062 17.8438 24.3691 17.8438 26.5938C17.8438 28.9492 19.6758 30.7812 22.0312 30.7812ZM42.9688 22.9297C39.5664 22.9297 35.6406 25.1543 35.1172 28.5566C34.8555 29.9961 36.5566 30.9121 37.6035 29.8652L38.9121 28.8184C40.875 27.1172 44.9316 27.1172 46.8945 28.8184L48.0723 29.8652C49.25 30.9121 50.9512 29.9961 50.6895 28.5566C50.166 25.1543 46.2402 22.9297 42.9688 22.9297ZM44.2773 42.0352C41.2676 45.5684 36.9492 47.5312 32.5 47.5312C27.9199 47.5312 23.6016 45.5684 20.5918 42.0352C18.8906 39.9414 15.6191 42.5586 17.4512 44.7832C21.1152 49.2324 26.6113 51.7188 32.5 51.7188C38.2578 51.7188 43.7539 49.2324 47.418 44.7832C49.25 42.5586 45.9785 39.9414 44.2773 42.0352Z" fill="#D33334"/>
</svg>
