<svg width="84" height="90" viewBox="0 0 84 90" fill="none" xmlns="http://www.w3.org/2000/svg">
<path d="M78.5039 14.7266L45.1289 0.820312C44.2598 0.472656 42.8691 0.298828 42 0.298828C40.957 0.298828 39.5664 0.472656 38.6973 0.820312L5.32227 14.7266C2.19336 16.1172 0.28125 19.0723 0.28125 22.375C0.28125 56.9668 20.0977 80.7812 38.6973 88.6035C40.7832 89.4727 43.043 89.4727 45.1289 88.6035C60.0781 82.3457 83.7188 60.9648 83.7188 22.375C83.7188 19.0723 81.6328 16.1172 78.5039 14.7266ZM43.043 83.3887C42.3477 83.7363 41.4785 83.7363 40.7832 83.3887C23.9219 76.6094 5.84375 52.9688 5.84375 22.375C5.84375 21.332 6.36523 20.2891 7.4082 19.9414L40.7832 6.03516C41.4785 5.6875 42.3477 5.6875 43.043 6.03516L76.418 19.9414C77.4609 20.2891 78.1562 21.332 77.9824 22.375C78.1562 52.9688 60.0781 76.6094 43.043 83.3887ZM66.6836 26.8945C65.8145 26.1992 64.5977 26.1992 63.7285 26.8945L35.3945 55.0547L23.4004 43.0605C22.5312 42.1914 21.1406 42.1914 20.4453 43.0605L18.8809 44.4512C18.0117 45.3203 18.0117 46.5371 18.8809 47.4062L33.8301 62.5293C34.6992 63.2246 35.916 63.2246 36.7852 62.5293L68.0742 31.4141C68.9434 30.5449 68.9434 29.3281 68.0742 28.459L66.6836 26.8945Z" fill="#D33334"/>
</svg>
