<svg width="76" height="68" viewBox="0 0 76 68" fill="none" xmlns="http://www.w3.org/2000/svg">
<path d="M73.332 44.082C72.0234 42.9043 70.4531 42.3809 68.752 42.3809C67.0508 42.3809 65.4805 42.9043 64.1719 43.9512L56.0586 50.3633C55.9277 50.625 55.5352 50.625 55.2734 50.625H49.7773C50.4316 49.4473 50.6934 48.0078 50.4316 46.4375C49.9082 42.7734 46.5059 40.1562 42.8418 40.1562H23.998C21.25 40.1562 18.6328 41.0723 16.4082 42.7734L11.4355 46.4375H1.35938C0.705078 46.4375 0.3125 46.9609 0.3125 47.4844V49.5781C0.3125 50.2324 0.705078 50.625 1.35938 50.625H12.875L18.8945 46.0449C20.4648 44.998 22.166 44.3438 23.998 44.3438H43.2344C44.9355 44.3438 46.375 45.7832 46.375 47.4844C46.375 49.3164 44.9355 50.625 43.2344 50.625H31.7188C30.541 50.625 29.625 51.6719 29.625 52.7188C29.625 53.8965 30.541 54.8125 31.7188 54.8125H55.2734C56.4512 54.8125 57.7598 54.4199 58.6758 53.6348L66.7891 47.2227C67.3125 46.8301 68.0977 46.5684 68.752 46.5684C69.4062 46.5684 70.0605 46.6992 70.4531 47.2227C71.8926 48.4004 71.7617 50.3633 70.4531 51.541L57.2363 62.0098C56.1895 62.7949 55.0117 63.3184 53.7031 63.3184H1.35938C0.705078 63.3184 0.3125 63.7109 0.3125 64.3652V66.459C0.3125 66.9824 0.705078 67.5059 1.35938 67.5059H53.7031C55.9277 67.5059 58.0215 66.7207 59.8535 65.2812L73.0703 54.6816C74.6406 53.5039 75.5566 51.541 75.6875 49.4473C75.6875 47.4844 74.9023 45.5215 73.332 44.082ZM38 33.875C44.9355 33.875 50.5625 28.3789 50.5625 21.5742C50.5625 16.3398 42.9727 5.87109 39.5703 1.29102C39.1777 0.767578 38.5234 0.375 38 0.375C37.3457 0.375 36.6914 0.767578 36.2988 1.29102C32.8965 5.87109 25.4375 16.3398 25.4375 21.5742C25.4375 28.3789 31.0645 33.875 38 33.875ZM38 6.00195C43.7578 14.1152 46.375 19.6113 46.375 21.5742C46.375 26.1543 42.5801 29.6875 38 29.6875C33.2891 29.6875 29.625 26.1543 29.625 21.5742C29.625 19.6113 32.1113 14.1152 38 6.00195Z" fill="#D33334"/>
</svg>
